<?xml version="1.0" encoding="utf-8"?>
<!-- Generator: Adobe Illustrator 24.3.0, SVG Export Plug-In . SVG Version: 6.00 Build 0)  -->
<svg version="1.1" id="Calque_1" xmlns="http://www.w3.org/2000/svg" xmlns:xlink="http://www.w3.org/1999/xlink" x="0px" y="0px"
	 viewBox="0 0 43 7961" style="enable-background:new 0 0 43 7961;" xml:space="preserve">
<style type="text/css">
	.st0{fill:#D9D9D9;}
</style>
<circle class="st0" cx="21.5" cy="23.5" r="12.5"/>
<circle class="st0" cx="21.5" cy="195.5" r="12.5"/>
<circle class="st0" cx="21.5" cy="367.5" r="12.5"/>
<circle class="st0" cx="21.5" cy="539.5" r="12.5"/>
<circle class="st0" cx="21.5" cy="711.5" r="12.5"/>
<circle class="st0" cx="21.5" cy="883.5" r="12.5"/>
<circle class="st0" cx="21.5" cy="1055.5" r="12.5"/>
<circle class="st0" cx="21.5" cy="1227.5" r="12.5"/>
<circle class="st0" cx="21.5" cy="1399.5" r="12.5"/>
<circle class="st0" cx="21.5" cy="1571.5" r="12.5"/>
<circle class="st0" cx="21.5" cy="1743.5" r="12.5"/>
<circle class="st0" cx="21.5" cy="1915.5" r="12.5"/>
<circle class="st0" cx="21.5" cy="2087.5" r="12.5"/>
<circle class="st0" cx="21.5" cy="2259.5" r="12.5"/>
<circle class="st0" cx="21.5" cy="2431.5" r="12.5"/>
<circle class="st0" cx="21.5" cy="2603.5" r="12.5"/>
<circle class="st0" cx="21.5" cy="2775.5" r="12.5"/>
<circle class="st0" cx="21.5" cy="2947.5" r="12.5"/>
<circle class="st0" cx="21.5" cy="3119.5" r="12.5"/>
<circle class="st0" cx="21.5" cy="3291.5" r="12.5"/>
<circle class="st0" cx="21.5" cy="3463.5" r="12.5"/>
<circle class="st0" cx="21.5" cy="3635.5" r="12.5"/>
<circle class="st0" cx="21.5" cy="3807.5" r="12.5"/>
<circle class="st0" cx="21.5" cy="3979.5" r="12.5"/>
<circle class="st0" cx="21.5" cy="3979.5" r="12.5"/>
<circle class="st0" cx="21.5" cy="4151.5" r="12.5"/>
<circle class="st0" cx="21.5" cy="4323.5" r="12.5"/>
<circle class="st0" cx="21.5" cy="4495.5" r="12.5"/>
<circle class="st0" cx="21.5" cy="4667.5" r="12.5"/>
<circle class="st0" cx="21.5" cy="4839.5" r="12.5"/>
<circle class="st0" cx="21.5" cy="5011.5" r="12.5"/>
<circle class="st0" cx="21.5" cy="5183.5" r="12.5"/>
<circle class="st0" cx="21.5" cy="5355.5" r="12.5"/>
<circle class="st0" cx="21.5" cy="5527.5" r="12.5"/>
<circle class="st0" cx="21.5" cy="5699.5" r="12.5"/>
<circle class="st0" cx="21.5" cy="5871.5" r="12.5"/>
<circle class="st0" cx="21.5" cy="6043.5" r="12.5"/>
<circle class="st0" cx="21.5" cy="6215.5" r="12.5"/>
<circle class="st0" cx="21.5" cy="6387.5" r="12.5"/>
<circle class="st0" cx="21.5" cy="6559.5" r="12.5"/>
<circle class="st0" cx="21.5" cy="6731.5" r="12.5"/>
<circle class="st0" cx="21.5" cy="6903.5" r="12.5"/>
<circle class="st0" cx="21.5" cy="7075.5" r="12.5"/>
<circle class="st0" cx="21.5" cy="7247.5" r="12.5"/>
<circle class="st0" cx="21.5" cy="7419.5" r="12.5"/>
<circle class="st0" cx="21.5" cy="7591.5" r="12.5"/>
<circle class="st0" cx="21.5" cy="7763.5" r="12.5"/>
<circle class="st0" cx="21.5" cy="7935.5" r="12.5"/>
</svg>
