<?xml version="1.0" encoding="UTF-8" standalone="no"?>
<!DOCTYPE svg PUBLIC "-//W3C//DTD SVG 1.1//EN" "http://www.w3.org/Graphics/SVG/1.1/DTD/svg11.dtd">
<svg width="100%" height="100%" viewBox="0 0 4690 5896" version="1.1" xmlns="http://www.w3.org/2000/svg" xmlns:xlink="http://www.w3.org/1999/xlink" xml:space="preserve" xmlns:serif="http://www.serif.com/" style="fill-rule:evenodd;clip-rule:evenodd;stroke-linecap:round;stroke-linejoin:round;stroke-miterlimit:1.5;">
    <g transform="matrix(1,0,0,1,-9915.53,-22955.6)">
        <g id="Plan-de-travail4" serif:id="Plan de travail4" transform="matrix(1.02142,0,0,0.99647,9751.95,22452.9)">
            <rect x="160.147" y="504.542" width="4591.53" height="5916.58" style="fill:none;"/>
            <g transform="matrix(0.979032,0,0,1.00354,-111.518,1241.31)">
                <rect x="1299.72" y="60.634" width="277.16" height="351.812" style="fill:rgb(205,207,208);stroke:rgb(35,31,32);stroke-width:4.17px;"/>
            </g>
            <g transform="matrix(0.979032,0,0,1.54329,-1601.04,748.049)">
                <path d="M3064.22,409.047C3074.96,409.047 3083.67,414.712 3083.67,421.699C3083.67,453.229 3083.67,535.027 3083.67,566.557C3083.67,573.545 3074.96,579.209 3064.22,579.209C3017.7,579.209 2900.44,579.209 2853.92,579.209C2843.18,579.209 2834.47,573.545 2834.47,566.557C2834.47,535.027 2834.47,453.229 2834.47,421.699C2834.47,414.712 2843.18,409.047 2853.92,409.047L3064.22,409.047Z" style="fill:rgb(205,207,208);stroke:rgb(35,31,32);stroke-width:3.21px;"/>
            </g>
            <g transform="matrix(0.979032,0,0,1.00354,-1093.6,-182.038)">
                <text x="2607.64px" y="1751.51px" style="font-family:'NeueHaasDisplay-Black', 'Neue Haas Grotesk Display Pro', sans-serif;font-weight:900;font-size:50px;fill:rgb(85,84,83);">450g</text>
                <g transform="matrix(50,0,0,50,2846.59,1805.68)">
                </g>
                <text x="2607.64px" y="1805.68px" style="font-family:'NeueHaasDisplay-Black', 'Neue Haas Grotesk Display Pro', sans-serif;font-weight:900;font-size:50px;fill:rgb(85,84,83);">San P<tspan x="2737.74px " y="1805.68px ">e</tspan>dr<tspan x="2817.39px " y="1805.68px ">o</tspan></text>
            </g>
            <g transform="matrix(0.351354,0,0,0.696135,461.313,858.304)">
                <path d="M1521.67,60.634C1536.31,60.634 1550.35,63.644 1560.71,69C1571.06,74.357 1576.88,81.623 1576.88,89.198C1576.88,155.233 1576.88,317.847 1576.88,383.882C1576.88,391.458 1571.06,398.723 1560.71,404.08C1550.35,409.437 1536.31,412.446 1521.67,412.446C1473.28,412.446 1403.32,412.446 1354.93,412.446C1340.29,412.446 1326.24,409.437 1315.89,404.08C1305.54,398.723 1299.72,391.458 1299.72,383.882C1299.72,317.847 1299.72,155.233 1299.72,89.198C1299.72,81.623 1305.54,74.357 1315.89,69C1326.24,63.644 1340.29,60.634 1354.93,60.634C1403.32,60.634 1473.28,60.634 1521.67,60.634Z" style="fill:rgb(205,207,208);stroke:rgb(35,31,32);stroke-width:7.54px;"/>
            </g>
            <g transform="matrix(1,0,0,1.00354,25.0683,-280.019)">
                <g transform="matrix(0.459625,0,0,0.693678,283.774,1637.7)">
                    <path d="M1534.67,60.634C1545.87,60.634 1556.6,63.644 1564.52,69C1572.43,74.357 1576.88,81.623 1576.88,89.198L1576.88,383.882C1576.88,391.458 1572.43,398.723 1564.52,404.08C1556.6,409.437 1545.87,412.446 1534.67,412.446L1341.92,412.446C1330.73,412.446 1320,409.437 1312.08,404.08C1304.16,398.723 1299.72,391.458 1299.72,383.882C1299.72,317.847 1299.72,155.233 1299.72,89.198C1299.72,81.623 1304.16,74.357 1312.08,69C1320,63.644 1330.73,60.634 1341.92,60.634C1394.13,60.634 1482.47,60.634 1534.67,60.634Z" style="fill:rgb(205,207,208);stroke:rgb(8,6,5);stroke-width:7.03px;"/>
                </g>
                <g transform="matrix(0.979032,0,0,1,-4628.72,496.94)">
                    <rect x="5670.06" y="1161.03" width="42.8" height="20.097" style="fill:rgb(205,207,208);stroke:rgb(8,6,5);stroke-width:4.17px;"/>
                </g>
            </g>
            <g transform="matrix(0.979032,0,0,1.00354,-1393.37,-1068.48)">
                <g>
                    <g transform="matrix(0.597071,0,0,0.597071,971.97,1770.94)">
                        <path d="M2364.63,942.938L2459.89,942.975L2413.68,1034.98L2364.63,942.938Z" style="fill:rgb(242,98,33);stroke:rgb(242,98,33);stroke-width:6.98px;"/>
                    </g>
                    <g>
                        <g transform="matrix(1,0,0,1.22847,0,-207.99)">
                            <path d="M2410.92,2004.98L2410.92,2069.12" style="fill:none;stroke:rgb(242,98,33);stroke-width:7.44px;"/>
                        </g>
                        <g transform="matrix(1,0,0,1.22847,278.358,314.615)">
                            <path d="M2410.92,2004.98L2410.92,2069.12" style="fill:none;stroke:rgb(242,98,33);stroke-width:7.44px;"/>
                        </g>
                        <g transform="matrix(1,0,0,1.22847,28.3931,314.615)">
                            <path d="M2410.92,2004.98L2410.92,2069.12" style="fill:none;stroke:rgb(242,98,33);stroke-width:7.44px;"/>
                        </g>
                        <g transform="matrix(3.63995e-16,-1,7.30263,7.52221e-17,-11786.5,5516.54)">
                            <path d="M2410.92,2004.98L2410.92,2069.12" style="fill:none;stroke:rgb(242,98,33);stroke-width:1.6px;"/>
                        </g>
                        <g transform="matrix(1,0,0,1.22847,1252.45,314.615)">
                            <path d="M2410.92,2004.98L2410.92,2069.12" style="fill:none;stroke:rgb(242,98,33);stroke-width:7.44px;"/>
                        </g>
                        <g transform="matrix(6.12323e-17,-1,1.22847,7.52221e-17,901.676,6108.12)">
                            <path d="M2410.92,2004.98L2410.92,2069.12" style="fill:none;stroke:rgb(242,98,33);stroke-width:7.44px;"/>
                        </g>
                        <g transform="matrix(-1.83697e-16,1,-1.22847,-2.25666e-16,6398.34,1277.4)">
                            <path d="M2410.92,2004.98L2410.92,2069.12" style="fill:none;stroke:rgb(242,98,33);stroke-width:7.44px;"/>
                        </g>
                        <g transform="matrix(1,0,0,1.22847,1243.91,840.299)">
                            <path d="M2410.92,2004.98L2410.92,2069.12" style="fill:none;stroke:rgb(242,98,33);stroke-width:7.44px;"/>
                        </g>
                        <g transform="matrix(1,0,0,1.22847,1235.25,1509.77)">
                            <path d="M2410.92,2004.98L2410.92,2069.12" style="fill:none;stroke:rgb(242,98,33);stroke-width:7.44px;"/>
                        </g>
                        <g transform="matrix(6.12323e-17,-1,1.22847,7.52221e-17,1473.58,6766.55)">
                            <path d="M2410.92,2004.98L2410.92,2069.12" style="fill:none;stroke:rgb(242,98,33);stroke-width:7.44px;"/>
                        </g>
                        <g transform="matrix(1,0,0,1.22847,1914.95,2210.55)">
                            <path d="M2410.92,2004.98L2410.92,2069.12" style="fill:none;stroke:rgb(242,98,33);stroke-width:7.44px;"/>
                        </g>
                        <g transform="matrix(0.852473,0,0,1,-10606.9,1251.22)">
                            <path d="M17518.8,2850.05C17518.8,2551.14 17350.4,2437.02 17057.3,2437.02" style="fill:none;stroke:rgb(242,117,34);stroke-width:8.97px;"/>
                        </g>
                    </g>
                </g>
            </g>
            <g transform="matrix(0.979032,0,0,1.00354,-2155.14,-690.834)">
                <g transform="matrix(50,0,0,50,3117.87,1751.51)">
                </g>
                <text x="2645.92px" y="1751.51px" style="font-family:'NeueHaasDisplay-Black', 'Neue Haas Grotesk Display Pro', sans-serif;font-weight:900;font-size:50px;fill:rgb(85,84,83);">A<tspan x="2681.37px " y="1751.51px ">c</tspan>ide Phosphorique</text>
            </g>
            <g transform="matrix(0.979032,0,0,1.00354,-2174.73,-164.36)">
                <text x="2837.47px" y="1751.51px" style="font-family:'NeueHaasDisplay-Black', 'Neue Haas Grotesk Display Pro', sans-serif;font-weight:900;font-size:50px;fill:rgb(85,84,83);">Eau dis<tspan x="3002.82px " y="1751.51px ">t</tspan>illée</text>
                <g transform="matrix(50,0,0,50,3117.87,1805.68)">
                </g>
                <text x="2933.27px" y="1805.68px" style="font-family:'NeueHaasDisplay-Black', 'Neue Haas Grotesk Display Pro', sans-serif;font-weight:900;font-size:50px;fill:rgb(85,84,83);">2L /Ph4</text>
            </g>
            <g transform="matrix(0.979032,0,0,1.00354,-4603.65,-288.397)">
                <rect x="5670.06" y="1161.03" width="42.8" height="20.097" style="fill:rgb(205,207,208);stroke:rgb(35,31,32);stroke-width:4.17px;"/>
            </g>
            <g transform="matrix(1,0,0,1.00354,366.762,-277.78)">
                <g transform="matrix(1.33315,0,0,0.759035,-1159.73,2156.85)">
                    <path d="M1576.88,60.634C1576.88,60.634 1576.88,266.621 1576.88,363.36C1576.88,390.469 1564.63,412.446 1549.52,412.446L1327.08,412.446C1311.97,412.446 1299.72,390.469 1299.72,363.36C1299.72,266.621 1299.72,60.634 1299.72,60.634L1576.88,60.634Z" style="fill:rgb(205,207,208);stroke:rgb(83,83,83);stroke-width:3.78px;"/>
                </g>
                <g transform="matrix(0.979032,0,0,0.295132,-2777.91,2091.34)">
                    <path d="M3813.6,334.303C3815.41,334.303 3817.15,336.74 3818.43,341.077C3819.71,345.415 3820.43,351.298 3820.43,357.432C3820.43,357.434 3820.43,357.437 3820.43,357.44C3820.43,363.574 3819.71,369.457 3818.43,373.794C3817.15,378.131 3815.41,380.568 3813.6,380.568C3763.77,380.568 3456.58,380.568 3406.75,380.568C3404.94,380.568 3403.2,378.131 3401.92,373.794C3400.64,369.457 3399.92,363.574 3399.92,357.44C3399.92,357.437 3399.92,357.434 3399.92,357.432C3399.92,351.298 3400.64,345.415 3401.92,341.077C3403.2,336.74 3404.94,334.303 3406.75,334.303C3456.58,334.303 3763.77,334.303 3813.6,334.303Z" style="fill:rgb(205,207,208);stroke:rgb(83,83,83);stroke-width:5.65px;"/>
                </g>
            </g>
            <g transform="matrix(1,0,0,1.00354,1439.94,-286.802)">
                <g transform="matrix(1.33315,0,0,0.759035,-1159.73,2156.85)">
                    <path d="M1576.88,60.634C1576.88,60.634 1576.88,266.621 1576.88,363.36C1576.88,390.469 1564.63,412.446 1549.52,412.446L1327.08,412.446C1311.97,412.446 1299.72,390.469 1299.72,363.36C1299.72,266.621 1299.72,60.634 1299.72,60.634L1576.88,60.634Z" style="fill:rgb(205,207,208);stroke:rgb(83,83,83);stroke-width:3.78px;"/>
                </g>
                <g transform="matrix(0.979032,0,0,0.295132,-2777.91,2091.34)">
                    <path d="M3813.6,334.303C3815.41,334.303 3817.15,336.74 3818.43,341.077C3819.71,345.415 3820.43,351.298 3820.43,357.432C3820.43,357.434 3820.43,357.437 3820.43,357.44C3820.43,363.574 3819.71,369.457 3818.43,373.794C3817.15,378.131 3815.41,380.568 3813.6,380.568C3763.77,380.568 3456.58,380.568 3406.75,380.568C3404.94,380.568 3403.2,378.131 3401.92,373.794C3400.64,369.457 3399.92,363.574 3399.92,357.44C3399.92,357.437 3399.92,357.434 3399.92,357.432C3399.92,351.298 3400.64,345.415 3401.92,341.077C3403.2,336.74 3404.94,334.303 3406.75,334.303C3456.58,334.303 3763.77,334.303 3813.6,334.303Z" style="fill:rgb(205,207,208);stroke:rgb(83,83,83);stroke-width:5.65px;"/>
                </g>
            </g>
            <g transform="matrix(1.31221,0,0,0.860849,-2756.49,1680.15)">
                <path d="M3069.16,409.047C3073.01,409.047 3076.7,411.437 3079.42,415.69C3082.14,419.944 3083.67,425.713 3083.67,431.728C3083.67,464.296 3083.67,523.96 3083.67,556.528C3083.67,562.543 3082.14,568.312 3079.42,572.566C3076.7,576.819 3073.01,579.209 3069.16,579.209C3025.07,579.209 2893.07,579.209 2848.98,579.209C2845.13,579.209 2841.44,576.819 2838.72,572.566C2836,568.312 2834.47,562.543 2834.47,556.528C2834.47,523.96 2834.47,464.296 2834.47,431.728C2834.47,425.713 2836,419.944 2838.72,415.69C2841.44,411.437 2845.13,409.047 2848.98,409.047C2893.07,409.047 3025.07,409.047 3069.16,409.047Z" style="fill:rgb(205,207,208);stroke:rgb(35,31,32);stroke-width:3.7px;"/>
            </g>
            <g transform="matrix(1.31221,0,0,0.860849,-1683.32,1671.13)">
                <path d="M3069.16,409.047C3073.01,409.047 3076.7,411.437 3079.42,415.69C3082.14,419.944 3083.67,425.713 3083.67,431.728C3083.67,464.296 3083.67,523.96 3083.67,556.528C3083.67,562.543 3082.14,568.312 3079.42,572.566C3076.7,576.819 3073.01,579.209 3069.16,579.209C3025.07,579.209 2893.07,579.209 2848.98,579.209C2845.13,579.209 2841.44,576.819 2838.72,572.566C2836,568.312 2834.47,562.543 2834.47,556.528C2834.47,523.96 2834.47,464.296 2834.47,431.728C2834.47,425.713 2836,419.944 2838.72,415.69C2841.44,411.437 2845.13,409.047 2848.98,409.047C2893.07,409.047 3025.07,409.047 3069.16,409.047Z" style="fill:rgb(205,207,208);stroke:rgb(35,31,32);stroke-width:3.7px;"/>
            </g>
            <g transform="matrix(0.584551,0,0,0.599185,-169.256,1233.19)">
                <g>
                    <path d="M2364.63,942.938L2459.89,942.975L2413.68,1034.98L2364.63,942.938Z" style="fill:rgb(242,98,33);stroke:rgb(242,98,33);stroke-width:6.98px;"/>
                </g>
            </g>
            <g transform="matrix(0.584551,0,0,0.599185,-413.979,1233.19)">
                <g>
                    <path d="M2364.63,942.938L2459.89,942.975L2413.68,1034.98L2364.63,942.938Z" style="fill:rgb(242,98,33);stroke:rgb(242,98,33);stroke-width:6.98px;"/>
                </g>
            </g>
            <g transform="matrix(0.979032,0,0,1.00354,-1675.69,521.234)">
                <g transform="matrix(50,0,0,50,2955.23,1751.51)">
                </g>
                <text x="2770.28px" y="1751.51px" style="font-family:'NeueHaasDisplay-Black', 'Neue Haas Grotesk Display Pro', sans-serif;font-weight:900;font-size:50px;fill:rgb(85,84,83);">2h &lt; 60<tspan x="2935.53px " y="1751.51px ">°</tspan></text>
            </g>
            <g transform="matrix(0.979032,0,0,1.00354,-1162.86,386.097)">
                <g transform="matrix(50,0,0,50,2942.63,1751.51)">
                </g>
                <text x="2790.33px" y="1751.51px" style="font-family:'NeueHaasDisplay-Black', 'Neue Haas Grotesk Display Pro', sans-serif;font-weight:900;font-size:50px;fill:rgb(85,84,83);">Filtr<tspan x="2885.73px " y="1751.51px ">e</tspan>r</text>
            </g>
            <g transform="matrix(3.57934e-17,-0.599185,0.584551,3.66895e-17,1309.28,3492.19)">
                <g>
                    <path d="M2364.63,942.938L2459.89,942.975L2413.68,1034.98L2364.63,942.938Z" style="fill:rgb(242,98,33);stroke:rgb(242,98,33);stroke-width:6.98px;"/>
                </g>
            </g>
            <g transform="matrix(0.351354,0,0,0.696135,1688.43,1369)">
                <path d="M1521.67,60.634C1536.31,60.634 1550.35,63.644 1560.71,69C1571.06,74.357 1576.88,81.623 1576.88,89.198C1576.88,155.233 1576.88,317.847 1576.88,383.882C1576.88,391.458 1571.06,398.723 1560.71,404.08C1550.35,409.437 1536.31,412.446 1521.67,412.446L1354.93,412.446C1340.29,412.446 1326.24,409.437 1315.89,404.08C1305.54,398.723 1299.72,391.458 1299.72,383.882L1299.72,89.198C1299.72,81.623 1305.54,74.357 1315.89,69C1326.24,63.644 1340.29,60.634 1354.93,60.634C1403.32,60.634 1473.28,60.634 1521.67,60.634Z" style="fill:rgb(205,207,208);stroke:rgb(35,31,32);stroke-width:7.54px;"/>
            </g>
            <g transform="matrix(0.584551,0,0,0.599185,784.413,1233.19)">
                <g>
                    <path d="M2364.63,942.938L2459.89,942.975L2413.68,1034.98L2364.63,942.938Z" style="fill:rgb(242,98,33);stroke:rgb(242,98,33);stroke-width:6.98px;"/>
                </g>
            </g>
            <g transform="matrix(0.979032,0,0,1.00354,-285.373,-178.846)">
                <text x="2607.64px" y="1751.51px" style="font-family:'NeueHaasDisplay-Black', 'Neue Haas Grotesk Display Pro', sans-serif;font-weight:900;font-size:50px;fill:rgb(85,84,83);">Ph 12</text>
                <text x="2607.64px" y="1805.68px" style="font-family:'NeueHaasDisplay-Black', 'Neue Haas Grotesk Display Pro', sans-serif;font-weight:900;font-size:50px;fill:rgb(85,84,83);">Hy<tspan x="2671.14px 2701.59px 2722.04px 2748.99px 2778.24px 2805.54px " y="1805.68px 1805.68px 1805.68px 1805.68px 1805.68px 1805.68px ">droxyd</tspan>e de S<tspan x="2971.99px " y="1805.68px ">o</tspan>dium</text>
            </g>
            <g transform="matrix(0.979032,0,0,1.00354,-142.795,412.643)">
                <text x="2607.64px" y="1751.51px" style="font-family:'NeueHaasDisplay-Black', 'Neue Haas Grotesk Display Pro', sans-serif;font-weight:900;font-size:50px;fill:rgb(85,84,83);">Ph 12</text>
            </g>
            <g transform="matrix(0.979032,0,0,1.00354,-3378.49,225.822)">
                <rect x="5670.06" y="1161.03" width="42.8" height="20.097" style="fill:rgb(205,207,208);stroke:rgb(35,31,32);stroke-width:4.17px;"/>
            </g>
            <g transform="matrix(1,0,0,1.00354,231.547,381.284)">
                <g transform="matrix(0.429758,0,0,0.690472,1201.08,658.951)">
                    <g transform="matrix(0.81749,0,0,0.493099,-3111.71,1765.58)">
                        <path d="M6067.99,2421.74C6085.28,2421.74 6099.3,2436.51 6099.3,2454.74L6099.3,2454.74C6099.3,2472.97 6085.28,2487.74 6067.99,2487.74C6006.47,2487.74 5870.43,2487.74 5808.9,2487.74C5791.61,2487.74 5777.6,2472.97 5777.6,2454.74L5777.6,2454.74C5777.6,2436.51 5791.61,2421.74 5808.9,2421.74L6067.99,2421.74Z" style="fill:rgb(205,207,208);stroke:rgb(83,83,83);stroke-width:11.91px;"/>
                    </g>
                    <g transform="matrix(0.979032,0,0,1,-4077.43,504.542)">
                        <path d="M5939.95,3051.35C5938.09,3051.53 5936.18,3051.63 5934.22,3051.63C5782.43,3051.63 5829.16,3050.33 5750.38,3050.33C5671.6,3050.33 5650.11,3019.29 5679.98,2950.55C5709.84,2881.82 5836.09,2577.31 5836.09,2533.97C5836.09,2490.64 5834.6,2487.64 5834.6,2487.64L6045.29,2487.64C6045.29,2487.64 6043.81,2490.64 6043.81,2533.97C6043.81,2577.31 6170.05,2881.82 6199.91,2950.55C6229.78,3019.29 6208.3,3050.33 6129.52,3050.33C6050.73,3050.33 6097.46,3051.63 5945.67,3051.63C5943.71,3051.63 5941.81,3051.53 5939.95,3051.35Z" style="fill:rgb(205,207,208);stroke:rgb(83,83,83);stroke-width:7.25px;"/>
                    </g>
                    <g transform="matrix(0.934268,0,0,0.991043,-4346.51,531.051)">
                        <path d="M6304.29,2959.63C6304.29,2959.63 6434.56,2612.8 6446.19,2583.05" style="fill:rgb(231,232,233);stroke:rgb(83,83,83);stroke-width:7.39px;"/>
                    </g>
                    <g transform="matrix(0.979032,0,0,1,-4628.62,505.151)">
                        <path d="M6304.34,2959.29L6323.54,2959.29" style="fill:none;stroke:rgb(83,83,83);stroke-width:7.25px;"/>
                    </g>
                    <g transform="matrix(0.979032,0,0,1,-4621.64,485.577)">
                        <path d="M6304.34,2959.29L6323.54,2959.29" style="fill:none;stroke:rgb(83,83,83);stroke-width:7.25px;"/>
                    </g>
                    <g transform="matrix(0.979032,0,0,1,-4614.66,466.002)">
                        <path d="M6304.34,2959.29L6323.54,2959.29" style="fill:none;stroke:rgb(83,83,83);stroke-width:7.25px;"/>
                    </g>
                    <g transform="matrix(0.979032,0,0,1,-4607.68,446.428)">
                        <path d="M6304.34,2959.29L6323.54,2959.29" style="fill:none;stroke:rgb(83,83,83);stroke-width:7.25px;"/>
                    </g>
                    <g transform="matrix(0.979032,0,0,1,-4600.69,426.853)">
                        <path d="M6304.34,2959.29L6323.54,2959.29" style="fill:none;stroke:rgb(83,83,83);stroke-width:7.25px;"/>
                    </g>
                    <g transform="matrix(0.979032,0,0,1,-4593.71,407.279)">
                        <path d="M6304.34,2959.29L6323.54,2959.29" style="fill:none;stroke:rgb(83,83,83);stroke-width:7.25px;"/>
                    </g>
                    <g transform="matrix(0.979032,0,0,1,-4586.73,387.704)">
                        <path d="M6304.34,2959.29L6323.54,2959.29" style="fill:none;stroke:rgb(83,83,83);stroke-width:7.25px;"/>
                    </g>
                    <g transform="matrix(0.979032,0,0,1,-4579.75,368.13)">
                        <path d="M6304.34,2959.29L6323.54,2959.29" style="fill:none;stroke:rgb(83,83,83);stroke-width:7.25px;"/>
                    </g>
                    <g transform="matrix(0.979032,0,0,1,-4572.76,348.555)">
                        <path d="M6304.34,2959.29L6323.54,2959.29" style="fill:none;stroke:rgb(83,83,83);stroke-width:7.25px;"/>
                    </g>
                    <g transform="matrix(0.979032,0,0,1,-4565.78,328.981)">
                        <path d="M6304.34,2959.29L6323.54,2959.29" style="fill:none;stroke:rgb(83,83,83);stroke-width:7.25px;"/>
                    </g>
                    <g transform="matrix(0.979032,0,0,1,-4558.8,309.406)">
                        <path d="M6304.34,2959.29L6323.54,2959.29" style="fill:none;stroke:rgb(83,83,83);stroke-width:7.25px;"/>
                    </g>
                    <g transform="matrix(0.979032,0,0,1,-4551.82,289.832)">
                        <path d="M6304.34,2959.29L6323.54,2959.29" style="fill:none;stroke:rgb(83,83,83);stroke-width:7.25px;"/>
                    </g>
                    <g transform="matrix(0.979032,0,0,1,-4544.83,270.258)">
                        <path d="M6304.34,2959.29L6323.54,2959.29" style="fill:none;stroke:rgb(83,83,83);stroke-width:7.25px;"/>
                    </g>
                    <g transform="matrix(0.979032,0,0,1,-4537.85,250.683)">
                        <path d="M6304.34,2959.29L6323.54,2959.29" style="fill:none;stroke:rgb(83,83,83);stroke-width:7.25px;"/>
                    </g>
                    <g transform="matrix(0.979032,0,0,1,-4530.87,231.109)">
                        <path d="M6304.34,2959.29L6323.54,2959.29" style="fill:none;stroke:rgb(83,83,83);stroke-width:7.25px;"/>
                    </g>
                    <g transform="matrix(0.979032,0,0,1,-4523.89,211.534)">
                        <path d="M6304.34,2959.29L6323.54,2959.29" style="fill:none;stroke:rgb(83,83,83);stroke-width:7.25px;"/>
                    </g>
                    <g transform="matrix(0.979032,0,0,1,-4516.9,191.96)">
                        <path d="M6304.34,2959.29L6323.54,2959.29" style="fill:none;stroke:rgb(83,83,83);stroke-width:7.25px;"/>
                    </g>
                    <g transform="matrix(0.979032,0,0,1,-4509.92,172.385)">
                        <path d="M6304.34,2959.29L6323.54,2959.29" style="fill:none;stroke:rgb(83,83,83);stroke-width:7.25px;"/>
                    </g>
                    <g transform="matrix(0.979032,0,0,1,-4502.94,152.811)">
                        <path d="M6304.34,2959.29L6323.54,2959.29" style="fill:none;stroke:rgb(83,83,83);stroke-width:7.25px;"/>
                    </g>
                    <g transform="matrix(0.979032,0,0,1,-4495.96,133.236)">
                        <path d="M6304.34,2959.29L6323.54,2959.29" style="fill:none;stroke:rgb(83,83,83);stroke-width:7.25px;"/>
                    </g>
                </g>
                <g transform="matrix(0.332222,0,0,0.545197,-23.4321,1429.77)">
                    <path d="M6124.17,2766.96C6155.44,2845.53 6186.87,2920.53 6199.91,2950.55C6229.78,3019.29 6208.3,3050.33 6129.52,3050.33C6050.73,3050.33 6097.46,3051.63 5945.67,3051.63C5943.71,3051.63 5941.81,3051.53 5939.95,3051.35C5938.09,3051.53 5936.18,3051.63 5934.22,3051.63C5782.43,3051.63 5829.16,3050.33 5750.38,3050.33C5671.6,3050.33 5650.11,3019.29 5679.98,2950.55C5693.02,2920.53 5724.45,2845.53 5755.72,2766.96L6124.17,2766.96Z" style="fill:rgb(205,207,208);stroke:rgb(83,83,83);stroke-width:9.18px;"/>
                </g>
            </g>
            <g transform="matrix(1,0,0,1.00354,835.017,853.285)">
                <g transform="matrix(0.459625,0,0,0.693678,283.774,1637.7)">
                    <path d="M1534.67,60.634C1545.87,60.634 1556.6,63.644 1564.52,69C1572.43,74.357 1576.88,81.623 1576.88,89.198C1576.88,155.233 1576.88,317.847 1576.88,383.882C1576.88,391.458 1572.43,398.723 1564.52,404.08C1556.6,409.437 1545.87,412.446 1534.67,412.446L1341.92,412.446C1330.73,412.446 1320,409.437 1312.08,404.08C1304.16,398.723 1299.72,391.458 1299.72,383.882C1299.72,317.847 1299.72,155.233 1299.72,89.198C1299.72,81.623 1304.16,74.357 1312.08,69C1320,63.644 1330.73,60.634 1341.92,60.634L1534.67,60.634Z" style="fill:rgb(205,207,208);stroke:rgb(83,83,83);stroke-width:7.03px;"/>
                </g>
                <g transform="matrix(0.979032,0,0,1,-4628.72,496.94)">
                    <rect x="5670.06" y="1161.03" width="42.8" height="20.097" style="fill:rgb(205,207,208);stroke:rgb(83,83,83);stroke-width:4.17px;"/>
                </g>
            </g>
            <g transform="matrix(1,0,0,1.00354,1243,2551.54)">
                <g transform="matrix(0.459625,0,0,0.693678,283.774,1637.7)">
                    <path d="M1534.67,60.634C1545.87,60.634 1556.6,63.644 1564.52,69C1572.43,74.357 1576.88,81.623 1576.88,89.198L1576.88,383.882C1576.88,391.458 1572.43,398.723 1564.52,404.08C1556.6,409.437 1545.87,412.446 1534.67,412.446C1482.47,412.446 1394.13,412.446 1341.92,412.446C1330.73,412.446 1320,409.437 1312.08,404.08C1304.16,398.723 1299.72,391.458 1299.72,383.882C1299.72,317.847 1299.72,155.233 1299.72,89.198C1299.72,81.623 1304.16,74.357 1312.08,69C1320,63.644 1330.73,60.634 1341.92,60.634C1394.13,60.634 1482.47,60.634 1534.67,60.634Z" style="fill:rgb(205,207,208);stroke:rgb(83,83,83);stroke-width:7.03px;"/>
                </g>
                <g transform="matrix(0.979032,0,0,1,-4628.72,496.94)">
                    <rect x="5670.06" y="1161.03" width="42.8" height="20.097" style="fill:rgb(205,207,208);stroke:rgb(83,83,83);stroke-width:4.17px;"/>
                </g>
            </g>
            <g transform="matrix(3.57934e-17,-0.599185,0.584551,3.66895e-17,1426.84,4085.87)">
                <g>
                    <path d="M2364.63,942.938L2459.89,942.975L2413.68,1034.98L2364.63,942.938Z" style="fill:rgb(242,98,33);stroke:rgb(242,98,33);stroke-width:6.98px;"/>
                </g>
            </g>
            <g transform="matrix(-1.0738e-16,0.599185,-0.584551,-1.10069e-16,2933.38,1188.86)">
                <g>
                    <path d="M2364.63,942.938L2459.89,942.975L2413.68,1034.98L2364.63,942.938Z" style="fill:rgb(242,98,33);stroke:rgb(242,98,33);stroke-width:6.98px;"/>
                </g>
            </g>
            <g transform="matrix(0.979032,0,0,1.00354,-1023.57,1106.83)">
                <g transform="matrix(50,0,0,50,2955.26,1751.51)">
                </g>
                <text x="2770.26px" y="1751.51px" style="font-family:'NeueHaasDisplay-Black', 'Neue Haas Grotesk Display Pro', sans-serif;font-weight:900;font-size:50px;fill:rgb(85,84,83);">T<tspan x="2796.56px " y="1751.51px ">o</tspan>luène</text>
            </g>
            <g transform="matrix(0.979032,0,0,1.00354,-703.706,2785.01)">
                <text x="2849.32px" y="1751.51px" style="font-family:'NeueHaasDisplay-Black', 'Neue Haas Grotesk Display Pro', sans-serif;font-weight:900;font-size:50px;fill:rgb(85,84,83);">Chlorur<tspan x="3027.62px " y="1751.51px ">e</tspan></text>
                <text x="2801.8px" y="1805.68px" style="font-family:'NeueHaasDisplay-Black', 'Neue Haas Grotesk Display Pro', sans-serif;font-weight:900;font-size:50px;fill:rgb(85,84,83);">D<tspan x="2839.15px 2851.35px 2880.35px 2907.65px 2938.1px 2958.55px " y="1805.68px 1805.68px 1805.68px 1805.68px 1805.68px 1805.68px ">&apos;hydro</tspan>gène</text>
                <g transform="matrix(50,0,0,50,3002.67,1859.85)">
                </g>
                <text x="2903.02px" y="1859.85px" style="font-family:'NeueHaasDisplay-Black', 'Neue Haas Grotesk Display Pro', sans-serif;font-weight:900;font-size:50px;fill:rgb(85,84,83);">10%</text>
            </g>
            <g transform="matrix(0.584551,0,0,0.599185,776.048,1760.74)">
                <g>
                    <path d="M2364.63,942.938L2459.89,942.975L2413.68,1034.98L2364.63,942.938Z" style="fill:rgb(242,98,33);stroke:rgb(242,98,33);stroke-width:6.98px;"/>
                </g>
            </g>
            <g transform="matrix(1,0,0,1.00354,238.828,-268.033)">
                <g transform="matrix(0.429758,0,0,0.690472,1201.08,658.951)">
                    <g transform="matrix(0.81749,0,0,0.493099,-3111.71,1765.58)">
                        <path d="M6067.99,2421.74C6085.28,2421.74 6099.3,2436.51 6099.3,2454.74C6099.3,2454.74 6099.3,2454.74 6099.3,2454.74C6099.3,2472.97 6085.28,2487.74 6067.99,2487.74C6006.47,2487.74 5870.43,2487.74 5808.9,2487.74C5791.61,2487.74 5777.6,2472.97 5777.6,2454.74L5777.6,2454.74C5777.6,2436.51 5791.61,2421.74 5808.9,2421.74C5870.43,2421.74 6006.47,2421.74 6067.99,2421.74Z" style="fill:rgb(205,207,208);stroke:rgb(83,83,83);stroke-width:11.91px;"/>
                    </g>
                    <g transform="matrix(0.979032,0,0,1,-4077.43,504.542)">
                        <path d="M5939.95,3051.35C5938.09,3051.53 5936.18,3051.63 5934.22,3051.63C5782.43,3051.63 5829.16,3050.33 5750.38,3050.33C5671.6,3050.33 5650.11,3019.29 5679.98,2950.55C5709.84,2881.82 5836.09,2577.31 5836.09,2533.97C5836.09,2490.64 5834.6,2487.64 5834.6,2487.64L6045.29,2487.64C6045.29,2487.64 6043.81,2490.64 6043.81,2533.97C6043.81,2577.31 6170.05,2881.82 6199.91,2950.55C6229.78,3019.29 6208.3,3050.33 6129.52,3050.33C6050.73,3050.33 6097.46,3051.63 5945.67,3051.63C5943.71,3051.63 5941.81,3051.53 5939.95,3051.35Z" style="fill:rgb(205,207,208);stroke:rgb(83,83,83);stroke-width:7.25px;"/>
                    </g>
                    <g transform="matrix(0.934268,0,0,0.991043,-4346.51,531.051)">
                        <path d="M6304.29,2959.63C6304.29,2959.63 6434.56,2612.8 6446.19,2583.05" style="fill:rgb(231,232,233);stroke:rgb(83,83,83);stroke-width:7.39px;"/>
                    </g>
                    <g transform="matrix(0.979032,0,0,1,-4628.62,505.151)">
                        <path d="M6304.34,2959.29L6323.54,2959.29" style="fill:none;stroke:rgb(83,83,83);stroke-width:7.25px;"/>
                    </g>
                    <g transform="matrix(0.979032,0,0,1,-4621.64,485.577)">
                        <path d="M6304.34,2959.29L6323.54,2959.29" style="fill:none;stroke:rgb(83,83,83);stroke-width:7.25px;"/>
                    </g>
                    <g transform="matrix(0.979032,0,0,1,-4614.66,466.002)">
                        <path d="M6304.34,2959.29L6323.54,2959.29" style="fill:none;stroke:rgb(83,83,83);stroke-width:7.25px;"/>
                    </g>
                    <g transform="matrix(0.979032,0,0,1,-4607.68,446.428)">
                        <path d="M6304.34,2959.29L6323.54,2959.29" style="fill:none;stroke:rgb(83,83,83);stroke-width:7.25px;"/>
                    </g>
                    <g transform="matrix(0.979032,0,0,1,-4600.69,426.853)">
                        <path d="M6304.34,2959.29L6323.54,2959.29" style="fill:none;stroke:rgb(83,83,83);stroke-width:7.25px;"/>
                    </g>
                    <g transform="matrix(0.979032,0,0,1,-4593.71,407.279)">
                        <path d="M6304.34,2959.29L6323.54,2959.29" style="fill:none;stroke:rgb(83,83,83);stroke-width:7.25px;"/>
                    </g>
                    <g transform="matrix(0.979032,0,0,1,-4586.73,387.704)">
                        <path d="M6304.34,2959.29L6323.54,2959.29" style="fill:none;stroke:rgb(83,83,83);stroke-width:7.25px;"/>
                    </g>
                    <g transform="matrix(0.979032,0,0,1,-4579.75,368.13)">
                        <path d="M6304.34,2959.29L6323.54,2959.29" style="fill:none;stroke:rgb(83,83,83);stroke-width:7.25px;"/>
                    </g>
                    <g transform="matrix(0.979032,0,0,1,-4572.76,348.555)">
                        <path d="M6304.34,2959.29L6323.54,2959.29" style="fill:none;stroke:rgb(83,83,83);stroke-width:7.25px;"/>
                    </g>
                    <g transform="matrix(0.979032,0,0,1,-4565.78,328.981)">
                        <path d="M6304.34,2959.29L6323.54,2959.29" style="fill:none;stroke:rgb(83,83,83);stroke-width:7.25px;"/>
                    </g>
                    <g transform="matrix(0.979032,0,0,1,-4558.8,309.406)">
                        <path d="M6304.34,2959.29L6323.54,2959.29" style="fill:none;stroke:rgb(83,83,83);stroke-width:7.25px;"/>
                    </g>
                    <g transform="matrix(0.979032,0,0,1,-4551.82,289.832)">
                        <path d="M6304.34,2959.29L6323.54,2959.29" style="fill:none;stroke:rgb(83,83,83);stroke-width:7.25px;"/>
                    </g>
                    <g transform="matrix(0.979032,0,0,1,-4544.83,270.258)">
                        <path d="M6304.34,2959.29L6323.54,2959.29" style="fill:none;stroke:rgb(83,83,83);stroke-width:7.25px;"/>
                    </g>
                    <g transform="matrix(0.979032,0,0,1,-4537.85,250.683)">
                        <path d="M6304.34,2959.29L6323.54,2959.29" style="fill:none;stroke:rgb(83,83,83);stroke-width:7.25px;"/>
                    </g>
                    <g transform="matrix(0.979032,0,0,1,-4530.87,231.109)">
                        <path d="M6304.34,2959.29L6323.54,2959.29" style="fill:none;stroke:rgb(83,83,83);stroke-width:7.25px;"/>
                    </g>
                    <g transform="matrix(0.979032,0,0,1,-4523.89,211.534)">
                        <path d="M6304.34,2959.29L6323.54,2959.29" style="fill:none;stroke:rgb(83,83,83);stroke-width:7.25px;"/>
                    </g>
                    <g transform="matrix(0.979032,0,0,1,-4516.9,191.96)">
                        <path d="M6304.34,2959.29L6323.54,2959.29" style="fill:none;stroke:rgb(83,83,83);stroke-width:7.25px;"/>
                    </g>
                    <g transform="matrix(0.979032,0,0,1,-4509.92,172.385)">
                        <path d="M6304.34,2959.29L6323.54,2959.29" style="fill:none;stroke:rgb(83,83,83);stroke-width:7.25px;"/>
                    </g>
                    <g transform="matrix(0.979032,0,0,1,-4502.94,152.811)">
                        <path d="M6304.34,2959.29L6323.54,2959.29" style="fill:none;stroke:rgb(83,83,83);stroke-width:7.25px;"/>
                    </g>
                    <g transform="matrix(0.979032,0,0,1,-4495.96,133.236)">
                        <path d="M6304.34,2959.29L6323.54,2959.29" style="fill:none;stroke:rgb(83,83,83);stroke-width:7.25px;"/>
                    </g>
                    <g transform="matrix(2.2781,0,0,1.44828,-13971.5,-1146.12)">
                        <path d="M6837.21,3071.74L6848.29,3020.57L6946.87,3020.47L6960.17,3070.48L6837.21,3071.74Z" style="fill:rgb(205,207,208);stroke:rgb(83,83,83);stroke-width:4.17px;"/>
                    </g>
                </g>
                <g transform="matrix(0.332222,0,0,0.545197,-23.4321,1429.77)">
                    <path d="M6124.17,2766.96C6155.44,2845.53 6186.87,2920.53 6199.91,2950.55C6229.78,3019.29 6208.3,3050.33 6129.52,3050.33C6050.73,3050.33 6097.46,3051.63 5945.67,3051.63C5943.71,3051.63 5941.81,3051.53 5939.95,3051.35C5938.09,3051.53 5936.18,3051.63 5934.22,3051.63C5782.43,3051.63 5829.16,3050.33 5750.38,3050.33C5671.6,3050.33 5650.11,3019.29 5679.98,2950.55C5693.02,2920.53 5727.63,2846.6 5758.9,2768.03L6124.17,2766.96Z" style="fill:rgb(205,207,208);stroke:rgb(83,83,83);stroke-width:9.18px;"/>
                </g>
            </g>
            <g transform="matrix(0.584551,0,0,0.599185,767.576,2432.58)">
                <g>
                    <path d="M2364.63,942.938L2459.89,942.975L2413.68,1034.98L2364.63,942.938Z" style="fill:rgb(242,98,33);stroke:rgb(242,98,33);stroke-width:6.98px;"/>
                </g>
            </g>
            <g transform="matrix(0.979032,0,0,1.00354,-643.598,1827.66)">
                <g transform="matrix(50,0,0,50,2942.98,1751.51)">
                </g>
                <text x="2789.98px" y="1751.51px" style="font-family:'NeueHaasDisplay-Black', 'Neue Haas Grotesk Display Pro', sans-serif;font-weight:900;font-size:50px;fill:rgb(85,84,83);">Shak<tspan x="2906.78px " y="1751.51px ">e</tspan></text>
            </g>
            <g transform="matrix(1,0,0,1.00354,894.55,392.95)">
                <g transform="matrix(0.429758,0,0,0.690472,1201.08,658.951)">
                    <g transform="matrix(0.81749,0,0,0.493099,-3111.71,1765.58)">
                        <path d="M6067.99,2421.74C6085.28,2421.74 6099.3,2436.51 6099.3,2454.74L6099.3,2454.74C6099.3,2472.97 6085.28,2487.74 6067.99,2487.74L5808.9,2487.74C5791.61,2487.74 5777.6,2472.97 5777.6,2454.74L5777.6,2454.74C5777.6,2436.51 5791.61,2421.74 5808.9,2421.74C5870.43,2421.74 6006.47,2421.74 6067.99,2421.74Z" style="fill:rgb(205,207,208);stroke:rgb(83,83,83);stroke-width:11.91px;"/>
                    </g>
                    <g transform="matrix(0.979032,0,0,1,-4077.43,504.542)">
                        <path d="M5939.95,3051.35C5938.09,3051.53 5936.18,3051.63 5934.22,3051.63C5782.43,3051.63 5829.16,3050.33 5750.38,3050.33C5671.6,3050.33 5650.11,3019.29 5679.98,2950.55C5709.84,2881.82 5836.09,2577.31 5836.09,2533.97C5836.09,2490.64 5834.6,2487.64 5834.6,2487.64L6045.29,2487.64C6045.29,2487.64 6043.81,2490.64 6043.81,2533.97C6043.81,2577.31 6170.05,2881.82 6199.91,2950.55C6229.78,3019.29 6208.3,3050.33 6129.52,3050.33C6050.73,3050.33 6097.46,3051.63 5945.67,3051.63C5943.71,3051.63 5941.81,3051.53 5939.95,3051.35Z" style="fill:rgb(205,207,208);stroke:rgb(83,83,83);stroke-width:7.25px;"/>
                    </g>
                    <g transform="matrix(0.934268,0,0,0.991043,-4346.51,531.051)">
                        <path d="M6304.29,2959.63C6304.29,2959.63 6434.56,2612.8 6446.19,2583.05" style="fill:rgb(231,232,233);stroke:rgb(83,83,83);stroke-width:7.39px;"/>
                    </g>
                    <g transform="matrix(0.979032,0,0,1,-4628.62,505.151)">
                        <path d="M6304.34,2959.29L6323.54,2959.29" style="fill:none;stroke:rgb(83,83,83);stroke-width:7.25px;"/>
                    </g>
                    <g transform="matrix(0.979032,0,0,1,-4621.64,485.577)">
                        <path d="M6304.34,2959.29L6323.54,2959.29" style="fill:none;stroke:rgb(83,83,83);stroke-width:7.25px;"/>
                    </g>
                    <g transform="matrix(0.979032,0,0,1,-4614.66,466.002)">
                        <path d="M6304.34,2959.29L6323.54,2959.29" style="fill:none;stroke:rgb(83,83,83);stroke-width:7.25px;"/>
                    </g>
                    <g transform="matrix(0.979032,0,0,1,-4607.68,446.428)">
                        <path d="M6304.34,2959.29L6323.54,2959.29" style="fill:none;stroke:rgb(83,83,83);stroke-width:7.25px;"/>
                    </g>
                    <g transform="matrix(0.979032,0,0,1,-4600.69,426.853)">
                        <path d="M6304.34,2959.29L6323.54,2959.29" style="fill:none;stroke:rgb(83,83,83);stroke-width:7.25px;"/>
                    </g>
                    <g transform="matrix(0.979032,0,0,1,-4593.71,407.279)">
                        <path d="M6304.34,2959.29L6323.54,2959.29" style="fill:none;stroke:rgb(83,83,83);stroke-width:7.25px;"/>
                    </g>
                    <g transform="matrix(0.979032,0,0,1,-4586.73,387.704)">
                        <path d="M6304.34,2959.29L6323.54,2959.29" style="fill:none;stroke:rgb(83,83,83);stroke-width:7.25px;"/>
                    </g>
                    <g transform="matrix(0.979032,0,0,1,-4579.75,368.13)">
                        <path d="M6304.34,2959.29L6323.54,2959.29" style="fill:none;stroke:rgb(83,83,83);stroke-width:7.25px;"/>
                    </g>
                    <g transform="matrix(0.979032,0,0,1,-4572.76,348.555)">
                        <path d="M6304.34,2959.29L6323.54,2959.29" style="fill:none;stroke:rgb(83,83,83);stroke-width:7.25px;"/>
                    </g>
                    <g transform="matrix(0.979032,0,0,1,-4565.78,328.981)">
                        <path d="M6304.34,2959.29L6323.54,2959.29" style="fill:none;stroke:rgb(83,83,83);stroke-width:7.25px;"/>
                    </g>
                    <g transform="matrix(0.979032,0,0,1,-4558.8,309.406)">
                        <path d="M6304.34,2959.29L6323.54,2959.29" style="fill:none;stroke:rgb(83,83,83);stroke-width:7.25px;"/>
                    </g>
                    <g transform="matrix(0.979032,0,0,1,-4551.82,289.832)">
                        <path d="M6304.34,2959.29L6323.54,2959.29" style="fill:none;stroke:rgb(83,83,83);stroke-width:7.25px;"/>
                    </g>
                    <g transform="matrix(0.979032,0,0,1,-4544.83,270.258)">
                        <path d="M6304.34,2959.29L6323.54,2959.29" style="fill:none;stroke:rgb(83,83,83);stroke-width:7.25px;"/>
                    </g>
                    <g transform="matrix(0.979032,0,0,1,-4537.85,250.683)">
                        <path d="M6304.34,2959.29L6323.54,2959.29" style="fill:none;stroke:rgb(83,83,83);stroke-width:7.25px;"/>
                    </g>
                    <g transform="matrix(0.979032,0,0,1,-4530.87,231.109)">
                        <path d="M6304.34,2959.29L6323.54,2959.29" style="fill:none;stroke:rgb(83,83,83);stroke-width:7.25px;"/>
                    </g>
                    <g transform="matrix(0.979032,0,0,1,-4523.89,211.534)">
                        <path d="M6304.34,2959.29L6323.54,2959.29" style="fill:none;stroke:rgb(83,83,83);stroke-width:7.25px;"/>
                    </g>
                    <g transform="matrix(0.979032,0,0,1,-4516.9,191.96)">
                        <path d="M6304.34,2959.29L6323.54,2959.29" style="fill:none;stroke:rgb(83,83,83);stroke-width:7.25px;"/>
                    </g>
                    <g transform="matrix(0.979032,0,0,1,-4509.92,172.385)">
                        <path d="M6304.34,2959.29L6323.54,2959.29" style="fill:none;stroke:rgb(83,83,83);stroke-width:7.25px;"/>
                    </g>
                    <g transform="matrix(0.979032,0,0,1,-4502.94,152.811)">
                        <path d="M6304.34,2959.29L6323.54,2959.29" style="fill:none;stroke:rgb(83,83,83);stroke-width:7.25px;"/>
                    </g>
                    <g transform="matrix(0.979032,0,0,1,-4495.96,133.236)">
                        <path d="M6304.34,2959.29L6323.54,2959.29" style="fill:none;stroke:rgb(83,83,83);stroke-width:7.25px;"/>
                    </g>
                    <g transform="matrix(2.2781,0,0,1.44828,-13971.5,-1146.12)">
                        <path d="M6837.21,3071.74L6848.29,3020.57L6946.87,3020.47L6960.17,3070.48L6837.21,3071.74Z" style="fill:rgb(205,207,208);stroke:rgb(83,83,83);stroke-width:4.17px;"/>
                    </g>
                </g>
                <g transform="matrix(0.332222,0,0,0.545197,-23.4321,1429.77)">
                    <path d="M6124.17,2766.96C6155.44,2845.53 6186.87,2920.53 6199.91,2950.55C6229.78,3019.29 6208.3,3050.33 6129.52,3050.33C6050.73,3050.33 6097.46,3051.63 5945.67,3051.63C5943.71,3051.63 5941.81,3051.53 5939.95,3051.35C5938.09,3051.53 5936.18,3051.63 5934.22,3051.63C5782.43,3051.63 5829.16,3050.33 5750.38,3050.33C5671.6,3050.33 5650.11,3019.29 5679.98,2950.55C5693.02,2920.53 5727.63,2846.6 5758.9,2768.03L6124.17,2766.96Z" style="fill:rgb(205,207,208);stroke:rgb(83,83,83);stroke-width:9.18px;"/>
                </g>
            </g>
            <g transform="matrix(3.57934e-17,-0.599185,0.584551,3.66895e-17,1986.75,4746.63)">
                <g>
                    <path d="M2364.63,942.938L2459.89,942.975L2413.68,1034.98L2364.63,942.938Z" style="fill:rgb(242,98,33);stroke:rgb(242,98,33);stroke-width:6.98px;"/>
                </g>
            </g>
            <g transform="matrix(5.99484e-17,-1.00354,0.979032,6.14492e-17,184.116,6782.87)">
                <g>
                    <g transform="matrix(0.597071,0,0,0.597071,971.97,1770.94)">
                        <path d="M2364.63,942.938L2459.89,942.975L2413.68,1034.98L2364.63,942.938Z" style="fill:rgb(242,98,33);stroke:rgb(242,98,33);stroke-width:6.98px;"/>
                    </g>
                    <g>
                        <g transform="matrix(1,0,0,1.22847,0,-207.99)">
                            <path d="M2410.92,2004.98L2410.92,2069.12" style="fill:none;stroke:rgb(242,98,33);stroke-width:7.44px;"/>
                        </g>
                        <g transform="matrix(1,0,0,1.22847,-990.732,613.255)">
                            <path d="M2410.92,2004.98L2410.92,2069.12" style="fill:none;stroke:rgb(242,98,33);stroke-width:7.44px;"/>
                        </g>
                        <g transform="matrix(6.12323e-17,1,-1.22847,7.52221e-17,5086.45,313.685)">
                            <path d="M2410.92,2004.98L2410.92,2069.12" style="fill:none;stroke:rgb(242,98,33);stroke-width:7.44px;"/>
                        </g>
                        <g transform="matrix(6.12323e-17,1,-1.22847,7.52221e-17,4581.78,313.685)">
                            <path d="M2410.92,2004.98L2410.92,2069.12" style="fill:none;stroke:rgb(242,98,33);stroke-width:7.44px;"/>
                        </g>
                        <g transform="matrix(6.12323e-17,1,-1.22847,7.52221e-17,4101.82,313.685)">
                            <path d="M2410.92,2004.98L2410.92,2069.12" style="fill:none;stroke:rgb(242,98,33);stroke-width:7.44px;"/>
                        </g>
                    </g>
                </g>
            </g>
            <g transform="matrix(3.57934e-17,-0.599185,0.584551,3.66895e-17,2721.95,6801.7)">
                <g>
                    <path d="M2364.63,942.938L2459.89,942.975L2413.68,1034.98L2364.63,942.938Z" style="fill:rgb(242,98,33);stroke:rgb(242,98,33);stroke-width:6.98px;"/>
                </g>
            </g>
            <g transform="matrix(0.584551,0,0,0.599185,1433.02,3135.84)">
                <g>
                    <path d="M2364.63,942.938L2459.89,942.975L2413.68,1034.98L2364.63,942.938Z" style="fill:rgb(242,98,33);stroke:rgb(242,98,33);stroke-width:6.98px;"/>
                </g>
            </g>
            <g transform="matrix(0.584551,0,0,0.599185,1442.81,3664.35)">
                <g>
                    <path d="M2364.63,942.938L2459.89,942.975L2413.68,1034.98L2364.63,942.938Z" style="fill:rgb(242,98,33);stroke:rgb(242,98,33);stroke-width:6.98px;"/>
                </g>
            </g>
            <g transform="matrix(0.584551,0,0,0.599185,1442.81,4170.8)">
                <g>
                    <path d="M2364.63,942.938L2459.89,942.975L2413.68,1034.98L2364.63,942.938Z" style="fill:rgb(242,98,33);stroke:rgb(242,98,33);stroke-width:6.98px;"/>
                </g>
            </g>
            <g transform="matrix(0.584551,0,0,0.599185,1442.81,4652.46)">
                <g>
                    <path d="M2364.63,942.938L2459.89,942.975L2413.68,1034.98L2364.63,942.938Z" style="fill:rgb(242,98,33);stroke:rgb(242,98,33);stroke-width:6.98px;"/>
                </g>
            </g>
            <g transform="matrix(0.979032,0,0,1.00354,-276.62,1664.21)">
                <text x="2733.73px" y="1751.51px" style="font-family:'NeueHaasDisplay-Black', 'Neue Haas Grotesk Display Pro', sans-serif;font-weight:900;font-size:50px;fill:rgb(85,84,83);">S<tspan x="2766.88px " y="1751.51px ">e</tspan>par<tspan x="2874.03px 2901.73px " y="1751.51px 1751.51px ">at</tspan>ion</text>
            </g>
            <g transform="matrix(0.979032,0,0,1.00354,113.048,2288.26)">
                <g transform="matrix(50,0,0,50,2948.28,1751.51)">
                </g>
                <text x="2654.03px" y="1751.51px" style="font-family:'NeueHaasDisplay-Black', 'Neue Haas Grotesk Display Pro', sans-serif;font-weight:900;font-size:50px;fill:rgb(85,84,83);">T<tspan x="2683.33px " y="1751.51px ">u</tspan>pper<tspan x="2823.68px 2863.68px 2891.63px 2912.08px " y="1751.51px 1751.51px 1751.51px 1751.51px ">ware</tspan></text>
            </g>
            <g transform="matrix(0.979032,0,0,1.00354,113.048,2797.59)">
                <g transform="matrix(50,0,0,50,2904.53,1751.51)">
                </g>
                <text x="2690.33px" y="1751.51px" style="font-family:'NeueHaasDisplay-Black', 'Neue Haas Grotesk Display Pro', sans-serif;font-weight:900;font-size:50px;fill:rgb(85,84,83);">A<tspan x="2725.78px " y="1751.51px ">g</tspan>it<tspan x="2786.78px 2814.48px " y="1751.51px 1751.51px ">at</tspan>ion</text>
            </g>
            <g transform="matrix(0.979032,0,0,1.00354,113.048,3304.04)">
                <g transform="matrix(50,0,0,50,2925.46,1751.51)">
                </g>
                <text x="2669.41px" y="1751.51px" style="font-family:'NeueHaasDisplay-Black', 'Neue Haas Grotesk Display Pro', sans-serif;font-weight:900;font-size:50px;fill:rgb(85,84,83);">R<tspan x="2703.71px " y="1751.51px ">e</tspan>poser 1h</text>
            </g>
            <g transform="matrix(0.979032,0,0,1.00354,113.048,3785.7)">
                <g transform="matrix(50,0,0,50,2943.03,1751.51)">
                </g>
                <text x="2651.83px" y="1751.51px" style="font-family:'NeueHaasDisplay-Black', 'Neue Haas Grotesk Display Pro', sans-serif;font-weight:900;font-size:50px;fill:rgb(85,84,83);">C<tspan x="2688.28px " y="1751.51px ">o</tspan>ngela<tspan x="2845.68px " y="1751.51px ">t</tspan>eur</text>
            </g>
            <g transform="matrix(0.979032,0,0,1.00354,789.519,3785.7)">
                <text x="2769.21px" y="1751.51px" style="font-family:'NeueHaasDisplay-Black', 'Neue Haas Grotesk Display Pro', sans-serif;font-weight:900;font-size:50px;fill:rgb(85,84,83);">R<tspan x="2804.01px " y="1751.51px ">i</tspan>ncer :</text>
                <text x="2740.81px" y="1805.68px" style="font-family:'NeueHaasDisplay-Black', 'Neue Haas Grotesk Display Pro', sans-serif;font-weight:900;font-size:50px;fill:rgb(85,84,83);">Eau G<tspan x="2874.71px " y="1805.68px ">l</tspan>acé</text>
                <text x="2684.78px" y="1859.85px" style="font-family:'NeueHaasDisplay-Black', 'Neue Haas Grotesk Display Pro', sans-serif;font-weight:900;font-size:50px;fill:rgb(85,84,83);">Alcool iso fr<tspan x="2955.98px " y="1859.85px ">o</tspan>id</text>
            </g>
            <g transform="matrix(0.979032,0,0,1.00354,1039.86,3516.2)">
                <text x="2721.61px" y="1751.51px" style="font-family:'NeueHaasDisplay-Black', 'Neue Haas Grotesk Display Pro', sans-serif;font-weight:900;font-size:50px;fill:rgb(85,84,83);">Filtr<tspan x="2817.01px " y="1751.51px ">e</tspan> à c<tspan x="2917.06px 2945.01px 2962.91px " y="1751.51px 1751.51px 1751.51px ">afé</tspan></text>
            </g>
            <g transform="matrix(0.783211,0.637321,-0.608719,0.785986,2809.51,-1470.54)">
                <g transform="matrix(0.979032,0,0,1,-4583.34,-1879.01)">
                    <rect x="7541.89" y="5148.63" width="15.812" height="255.273" style="fill:rgb(205,207,208);stroke:rgb(83,83,83);stroke-width:4.17px;"/>
                </g>
                <g transform="matrix(0.979032,0,0,1.59331,-4593.13,-4905.19)">
                    <circle cx="7560.24" cy="5128.33" r="27.84" style="fill:rgb(205,207,208);stroke:rgb(83,83,83);stroke-width:3.13px;"/>
                </g>
            </g>
            <g transform="matrix(1,0,0,1.00354,-469.027,-2264.19)">
                <g transform="matrix(0.700633,0,0,1,-2378.08,545.017)">
                    <path d="M8418.61,5572.87C8418.61,5572.87 8418.61,5592.63 8418.61,5613.21C8418.61,5638.44 8390.03,5658.89 8354.78,5658.89L7937.42,5658.89C7902.17,5658.89 7873.59,5638.44 7873.59,5613.21C7873.59,5592.63 7873.59,5572.87 7873.59,5572.87L8418.61,5572.87Z" style="fill:rgb(205,207,208);stroke:rgb(83,83,83);stroke-width:4.79px;"/>
                </g>
                <g transform="matrix(0.700633,0,0,0.311667,-2378.08,4382.39)">
                    <path d="M8425.41,5533.35L8425.41,5561.03C8425.41,5568.68 8422.71,5574.88 8419.38,5574.88L7868.89,5574.88C7865.56,5574.88 7862.86,5568.68 7862.86,5561.03L7862.86,5533.35C7862.86,5525.71 7865.56,5519.51 7868.89,5519.51L8419.38,5519.51C8422.71,5519.51 8425.41,5525.71 8425.41,5533.35Z" style="fill:rgb(205,207,208);stroke:rgb(83,83,83);stroke-width:7.55px;"/>
                </g>
            </g>
            <g transform="matrix(1,0,0,1.00354,-469.027,-1754.86)">
                <g transform="matrix(0.700633,0,0,1,-2378.08,545.017)">
                    <path d="M8418.61,5572.87C8418.61,5572.87 8418.61,5592.63 8418.61,5613.21C8418.61,5638.44 8390.03,5658.89 8354.78,5658.89C8249.9,5658.89 8042.31,5658.89 7937.42,5658.89C7902.17,5658.89 7873.59,5638.44 7873.59,5613.21C7873.59,5592.63 7873.59,5572.87 7873.59,5572.87L8418.61,5572.87Z" style="fill:rgb(205,207,208);stroke:rgb(83,83,83);stroke-width:4.79px;"/>
                </g>
                <g transform="matrix(0.700633,0,0,0.311667,-2378.08,4382.39)">
                    <path d="M8425.41,5533.35L8425.41,5561.03C8425.41,5568.68 8422.71,5574.88 8419.38,5574.88L7868.89,5574.88C7865.56,5574.88 7862.86,5568.68 7862.86,5561.03L7862.86,5533.35C7862.86,5525.71 7865.56,5519.51 7868.89,5519.51L8419.38,5519.51C8422.71,5519.51 8425.41,5525.71 8425.41,5533.35Z" style="fill:rgb(205,207,208);stroke:rgb(83,83,83);stroke-width:7.55px;"/>
                </g>
            </g>
            <g transform="matrix(1,0,0,1.00354,-469.027,-1248.41)">
                <g transform="matrix(0.700633,0,0,1,-2378.08,545.017)">
                    <path d="M8418.61,5572.87C8418.61,5572.87 8418.61,5592.63 8418.61,5613.21C8418.61,5638.44 8390.03,5658.89 8354.78,5658.89C8249.9,5658.89 8042.31,5658.89 7937.42,5658.89C7902.17,5658.89 7873.59,5638.44 7873.59,5613.21C7873.59,5592.63 7873.59,5572.87 7873.59,5572.87L8418.61,5572.87Z" style="fill:rgb(205,207,208);stroke:rgb(83,83,83);stroke-width:4.79px;"/>
                </g>
                <g transform="matrix(0.700633,0,0,0.311667,-2378.08,4382.39)">
                    <path d="M8425.41,5533.35L8425.41,5561.03C8425.41,5568.68 8422.71,5574.88 8419.38,5574.88L7868.89,5574.88C7865.56,5574.88 7862.86,5568.68 7862.86,5561.03L7862.86,5533.35C7862.86,5525.71 7865.56,5519.51 7868.89,5519.51L8419.38,5519.51C8422.71,5519.51 8425.41,5525.71 8425.41,5533.35Z" style="fill:rgb(205,207,208);stroke:rgb(83,83,83);stroke-width:7.55px;"/>
                </g>
            </g>
            <g transform="matrix(1,0,0,1.00354,-469.027,-766.753)">
                <g transform="matrix(0.700633,0,0,1,-2378.08,545.017)">
                    <path d="M8418.61,5572.87C8418.61,5572.87 8418.61,5592.63 8418.61,5613.21C8418.61,5638.44 8390.03,5658.89 8354.78,5658.89C8249.9,5658.89 8042.31,5658.89 7937.42,5658.89C7902.17,5658.89 7873.59,5638.44 7873.59,5613.21C7873.59,5592.63 7873.59,5572.87 7873.59,5572.87L8418.61,5572.87Z" style="fill:rgb(205,207,208);stroke:rgb(83,83,83);stroke-width:4.79px;"/>
                </g>
                <g transform="matrix(0.700633,0,0,0.311667,-2378.08,4382.39)">
                    <path d="M8425.41,5533.35L8425.41,5561.03C8425.41,5568.68 8422.71,5574.88 8419.38,5574.88L7868.89,5574.88C7865.56,5574.88 7862.86,5568.68 7862.86,5561.03L7862.86,5533.35C7862.86,5525.71 7865.56,5519.51 7868.89,5519.51L8419.38,5519.51C8422.71,5519.51 8425.41,5525.71 8425.41,5533.35Z" style="fill:rgb(205,207,208);stroke:rgb(83,83,83);stroke-width:7.55px;"/>
                </g>
            </g>
            <g transform="matrix(0.643898,0,0,0.371354,-2384.82,1849.91)">
                <path d="M8418.61,5572.87C8418.61,5572.87 8418.61,5572.87 8418.61,5572.87C8418.61,5595.69 8413.51,5617.56 8404.43,5633.69C8395.36,5649.83 8383.05,5658.89 8370.21,5658.89C8266.82,5658.89 8025.39,5658.89 7921.99,5658.89C7909.15,5658.89 7896.84,5649.83 7887.77,5633.69C7878.69,5617.56 7873.59,5595.69 7873.59,5572.87C7873.59,5572.87 7873.59,5572.87 7873.59,5572.87L8418.61,5572.87Z" style="fill:rgb(205,207,208);stroke:rgb(83,83,83);stroke-width:7.81px;"/>
            </g>
            <g transform="matrix(0.643898,0,0,0.371354,-2384.82,2359.23)">
                <path d="M8418.61,5572.87C8418.61,5572.87 8418.61,5572.87 8418.61,5572.87C8418.61,5595.69 8413.51,5617.56 8404.43,5633.69C8395.36,5649.83 8383.05,5658.89 8370.21,5658.89C8266.82,5658.89 8025.39,5658.89 7921.99,5658.89C7909.15,5658.89 7896.84,5649.83 7887.77,5633.69C7878.69,5617.56 7873.59,5595.69 7873.59,5572.87C7873.59,5572.87 7873.59,5572.87 7873.59,5572.87L8418.61,5572.87Z" style="fill:rgb(205,207,208);stroke:rgb(83,83,83);stroke-width:7.81px;"/>
            </g>
            <g transform="matrix(0.643898,0,0,0.371354,-2384.82,2865.69)">
                <path d="M8418.61,5572.87C8418.61,5572.87 8418.61,5572.87 8418.61,5572.87C8418.61,5595.69 8413.51,5617.56 8404.43,5633.69C8395.36,5649.83 8383.05,5658.89 8370.21,5658.89L7921.99,5658.89C7909.15,5658.89 7896.84,5649.83 7887.77,5633.69C7878.69,5617.56 7873.59,5595.69 7873.59,5572.87C7873.59,5572.87 7873.59,5572.87 7873.59,5572.87L8418.61,5572.87Z" style="fill:rgb(205,207,208);stroke:rgb(83,83,83);stroke-width:7.81px;"/>
            </g>
            <g transform="matrix(0.643898,0,0,0.371354,-2384.82,3347.35)">
                <path d="M8418.61,5572.87C8418.61,5572.87 8418.61,5572.87 8418.61,5572.87C8418.61,5595.69 8413.51,5617.56 8404.43,5633.69C8395.36,5649.83 8383.05,5658.89 8370.21,5658.89L7921.99,5658.89C7909.15,5658.89 7896.84,5649.83 7887.77,5633.69C7878.69,5617.56 7873.59,5595.69 7873.59,5572.87C7873.59,5572.87 7873.59,5572.87 7873.59,5572.87L8418.61,5572.87Z" style="fill:rgb(205,207,208);stroke:rgb(83,83,83);stroke-width:7.81px;"/>
            </g>
            <g transform="matrix(1,0,0,1.00354,-1023.45,-216.417)">
                <g transform="matrix(0.717983,0.679841,-0.665586,0.73336,2169.99,-5059.86)">
                    <rect x="7541.89" y="5148.63" width="15.812" height="255.273" style="fill:rgb(205,207,208);stroke:rgb(83,83,83);stroke-width:4.17px;"/>
                </g>
                <g transform="matrix(0.717983,0.679841,-1.06048,1.16847,4176.99,-7285.94)">
                    <circle cx="7560.24" cy="5128.33" r="27.84" style="fill:rgb(205,207,208);stroke:rgb(83,83,83);stroke-width:3.13px;"/>
                </g>
            </g>
            <g transform="matrix(0.979032,0,0,1.00354,128.665,919.448)">
                <g transform="matrix(50,0,0,50,2896.38,1751.51)">
                </g>
                <text x="2698.48px" y="1751.51px" style="font-family:'NeueHaasDisplay-Black', 'Neue Haas Grotesk Display Pro', sans-serif;font-weight:900;font-size:50px;fill:rgb(85,84,83);">3 Cy<tspan x="2800.43px " y="1751.51px ">c</tspan>les</text>
            </g>
            <g transform="matrix(0.979032,0,0,0.52416,-14406.1,2692.29)">
                <path d="M18291.8,4848.9L18374.4,5032.35L18446.8,4849.17L18291.8,4848.9Z" style="fill:rgb(205,207,208);stroke:rgb(83,83,83);stroke-width:5.22px;"/>
            </g>
            <g transform="matrix(0.580432,0,0,0.808672,-7097.77,1389.84)">
                <path d="M18502.6,4862.92L18502.6,5031.91L18283.6,5031.91L18283.6,4827.66L18551.8,4827.66L18502.6,4862.92Z" style="fill:rgb(205,207,208);stroke:rgb(83,83,83);stroke-width:5.89px;"/>
            </g>
            <g transform="matrix(0.493176,0,0,1.00354,-5505.57,367.809)">
                <path d="M18319.4,4931.2L18319.4,5055.77" style="fill:none;stroke:rgb(139,139,139);stroke-width:5.26px;"/>
            </g>
            <g transform="matrix(0.493176,0,0,1.00354,-5505.57,367.809)">
                <path d="M18319.3,4930.65L18337.6,4930.65" style="fill:none;stroke:rgb(139,139,139);stroke-width:5.26px;"/>
            </g>
            <g transform="matrix(0.493176,0,0,1.00354,-5505.57,380.959)">
                <path d="M18319.3,4930.65L18337.6,4930.65" style="fill:none;stroke:rgb(139,139,139);stroke-width:5.26px;"/>
            </g>
            <g transform="matrix(0.493176,0,0,1.00354,-5505.57,394.109)">
                <path d="M18319.3,4930.65L18337.6,4930.65" style="fill:none;stroke:rgb(139,139,139);stroke-width:5.26px;"/>
            </g>
            <g transform="matrix(0.493176,0,0,1.00354,-5505.57,407.259)">
                <path d="M18319.3,4930.65L18337.6,4930.65" style="fill:none;stroke:rgb(139,139,139);stroke-width:5.26px;"/>
            </g>
            <g transform="matrix(0.493176,0,0,1.00354,-5505.57,420.408)">
                <path d="M18319.3,4930.65L18337.6,4930.65" style="fill:none;stroke:rgb(139,139,139);stroke-width:5.26px;"/>
            </g>
            <g transform="matrix(0.493176,0,0,1.00354,-5505.57,433.558)">
                <path d="M18319.3,4930.65L18337.6,4930.65" style="fill:none;stroke:rgb(139,139,139);stroke-width:5.26px;"/>
            </g>
            <g transform="matrix(0.493176,0,0,1.00354,-5505.57,446.708)">
                <path d="M18319.3,4930.65L18337.6,4930.65" style="fill:none;stroke:rgb(139,139,139);stroke-width:5.26px;"/>
            </g>
            <g transform="matrix(0.493176,0,0,1.00354,-5505.57,459.858)">
                <path d="M18319.3,4930.65L18337.6,4930.65" style="fill:none;stroke:rgb(139,139,139);stroke-width:5.26px;"/>
            </g>
            <g transform="matrix(0.493176,0,0,1.00354,-5505.57,473.008)">
                <path d="M18319.3,4930.65L18337.6,4930.65" style="fill:none;stroke:rgb(139,139,139);stroke-width:5.26px;"/>
            </g>
            <g transform="matrix(0.493176,0,0,1.00354,-5505.57,486.158)">
                <path d="M18319.3,4930.65L18337.6,4930.65" style="fill:none;stroke:rgb(139,139,139);stroke-width:5.26px;"/>
            </g>
        </g>
    </g>
</svg>
