<?xml version="1.0" encoding="utf-8"?>
<!-- Generator: Adobe Illustrator 24.3.0, SVG Export Plug-In . SVG Version: 6.00 Build 0)  -->
<svg version="1.1" id="Calque_1" xmlns="http://www.w3.org/2000/svg" xmlns:xlink="http://www.w3.org/1999/xlink" x="0px" y="0px"
	 viewBox="0 0 1280 676" style="enable-background:new 0 0 1280 676;" xml:space="preserve">
<style type="text/css">
	.st0{fill:#D9D9D9;}
</style>
<g>
	<g>
		<path class="st0" d="M323.5,528c-26.6,0-52.4-5.8-70.7-15.9l-3.1-1.8l-48.5-56.2l-0.8-1.1c-4.3-6.7-4.5-14.8-0.6-24.1
			c1.8-4.2,4.5-9.1,8.2-14.9c3.6-5.5,8.1-11.8,13.5-18.7c-13-7.4-26.3-16.8-36.9-26.1c-10.1-8.8-16.7-16.4-20.2-23.5
			c-2.1,7.3-3.6,14.9-4.6,22.6c-0.5,4-1.2,7.1-2.1,9.7c-3.9,10.6-13,13.9-19.6,13.6c-3.2-0.2-14-1.9-18.1-15.4
			c-1-3.2-1.5-6.7-1.5-10c0-36.9,9.2-75.2,25.8-108c16.1-31.7,37.7-55.9,60.8-68.2l3.9-2.1l4.4-0.1c32.4-0.6,68.7,7.9,99.6,23.4
			c6.9,3.4,13.4,7.2,19.3,11c1.2-2.9,2.7-5.7,4.5-8.3c5.7-8.8,13.8-16.1,23.4-21.2c10.6-5.6,22.7-8.5,36-8.5
			c19.8,0,34.4,2.8,46.1,8.7c2,1,4,2.2,5.9,3.4c3.7-5,9.4-8,15.6-8c13.4,0,19.9,11,24.1,18.3c5.4,8.8,12.7,14.9,22.9,18.9
			c10.2,4.1,22.2,5.8,33.8,7.4l1.3,0.2c4.8,0.7,9.5,1.7,14,3c-2.7-4.5-5.5-7.6-8-8.8c-2.9-1.4-5.1-2.7-7-4.1
			c-6.8-5.2-9.9-12.8-8.2-20.6c1.1-5,5.1-13.8,19.5-16.1c4.1-0.6,9.4-0.9,16.7-0.9c27.8,0,42.4,15.2,53.1,26.2
			c1.1,1.1,2.1,2.2,3,3.1l34.4-28.3h26.3c18.7,0,34.9,5.3,48.1,15.6c9.2-6.2,23.3-14.1,42.9-14.1c14.7,0,28.4,2.5,40.6,7.5l-0.3-5.4
			h70.6l2.6,47.8h20.2c-4.1-5.6-6.2-12.4-6.1-19.4c0.2-17.5,14.6-31.8,32-32h0.4c8.6,0,16.7,3.3,22.8,9.3c2.5,2.5,4.6,5.4,6.2,8.5
			c22.9-11.7,47.3-17.4,74.4-17.4h7.2l34.7,31.9c34.3,31.5,51.5,47.3,56.8,51.5c6.4,5,10.1,8.8,12.5,12.5h0c5,7.6,5,16.4,0.2,23.6
			c-3.8,5.7-10.1,8.9-17.1,8.5c-3.5,0.4-5.1,1.5-5.3,2.4c-0.3,1.1,1,3.1,3.7,5.3c6.5,4.9,9.2,13.5,6.6,21.5
			c-2,5.9-6.6,10.9-15.3,16.6c-6,3.9-13.4,7.8-21.5,11.2c-4.1,1.8-8.3,3.4-12.6,4.8c0.2,0.6,0.4,1.3,0.6,1.9
			c2.7,11.6-4.6,20.1-14.7,32c-1,1.2-2,2.3-2.9,3.4c-16.5,19.6-44.9,51.9-101.2,105.4l-5.3,5.1h-7.4c-42.1,0-67.4,0-100.5-7.2
			c-30.5-6.7-55.4-18-75.4-27.2c-17.6-8-32.8-15-43.8-15H655l-8.2-9.5c-18.1-20.9-21.4-23.8-27-23.8h-1.3l1,32.7h-77.4
			c0.7,0.2,1.5,0.4,2.2,0.5l0.6,0.1c16.1,4,21.7,16.5,20.2,26.4c-1.8,11.7-12.7,20.1-25.7,19.2l-1.2-0.1c-0.7-0.1-1.5-0.2-2.2-0.3
			l-2.4-0.4c-28-5.5-54.2-26.9-79.5-47.5l-0.3-0.2c-2.9-2.4-5.9-4.8-8.8-7.2c-1.5,3-3.6,5.7-6,7.8L412,498.5
			c-18.5,17.3-46.9,27.8-80,29.3C329.2,527.9,326.3,528,323.5,528z M251.8,508.2l2.4,1.3c17.9,9.9,43.1,15.6,69.3,15.6
			c2.8,0,5.6-0.1,8.4-0.2c32.4-1.5,60.2-11.7,78.1-28.6l26.8-25.3c2.6-2.3,4.7-5.3,6.1-8.6l0.8-1.8l1.5,1.2
			c3.4,2.7,6.9,5.5,10.3,8.3l0.3,0.2c25.1,20.4,51,41.5,78.3,46.9l2.3,0.4c0.7,0.1,1.4,0.2,2.1,0.3l1,0.1c11.4,0.7,21-6.5,22.6-16.7
			c1.3-8.7-3.7-19.6-18-23.2l-0.5-0.1c-3.6-0.8-7.2-1.9-10.7-3.5l-6.3-2.8h89.9l-1-32.7h4.3c6.8,0,10.4,3,29.2,24.8l7.3,8.5h87.2
			c11.7,0,27.1,7.1,45,15.3c19.9,9.1,44.6,20.4,74.8,27c32.8,7.1,58.1,7.1,99.9,7.1h6.2l4.5-4.3c56.1-53.4,84.5-85.6,100.9-105.2
			c1-1.1,1.9-2.3,2.9-3.4c9.6-11.2,16.5-19.3,14.1-29.4c-0.2-1-0.5-2-1-2.9l-0.6-1.5l1.5-0.5c4.7-1.6,9.3-3.3,13.8-5.2
			c7.9-3.4,15.2-7.2,21.1-11c8.2-5.3,12.4-9.8,14.2-15.1c2.2-6.7,0-14.1-5.6-18.3c-3.9-3.3-5.4-6-4.7-8.4c0.7-2.4,3.5-3.9,8-4.4
			c9.1,0.5,13.6-5.4,14.8-7.2c4.1-6.2,4.1-13.9-0.2-20.4h0c-2.2-3.4-5.8-6.9-11.9-11.7c-5.4-4.3-22.7-20.1-57-51.7l-33.9-31.1h-6
			c-27.1,0-51.5,5.8-74.4,17.7l-1.4,0.7l-0.6-1.4c-1.5-3.4-3.6-6.4-6.2-9c-5.6-5.5-12.9-8.5-20.8-8.5h-0.4
			c-15.9,0.2-29,13.3-29.1,29.2c-0.1,7.3,2.5,14.4,7.3,19.9l2.1,2.4h-29.2l-2.6-47.8h-64.8l0.4,7.1l-2.2-0.9
			c-12.4-5.4-26.4-8.2-41.6-8.2c-15,0-28,4.4-42.1,14.2l-0.9,0.6l-0.8-0.7c-12.8-10.4-28.6-15.7-47.1-15.7h-25.3l-35.7,29.3
			l-0.9-0.9c-1.3-1.2-2.5-2.6-3.9-3.9c-10.5-10.9-24.6-25.5-51.2-25.5c-7.2,0-12.3,0.3-16.2,0.9c-12.6,2-16.1,9.5-17.1,13.8
			c-1.5,6.6,1.2,13.2,7.1,17.6c1.7,1.3,3.8,2.5,6.5,3.8c4.6,2.3,8.6,8.5,11.1,13.2l1.7,3.2l-3.5-1.2c-5.4-1.8-11.1-3.2-17.1-4
			l-1.3-0.2c-11.8-1.7-24-3.4-34.5-7.6c-10.8-4.3-18.5-10.7-24.3-20.1c-4.2-7.2-9.9-16.9-21.6-16.9c-5.7,0-10.9,2.9-13.9,7.9
			l-0.8,1.3l-1.3-0.9c-2.1-1.5-4.4-2.8-6.7-4c-11.3-5.7-25.5-8.4-44.8-8.4c-12.8,0-24.4,2.7-34.6,8.2c-9.2,4.9-17,11.9-22.3,20.2
			c-2,3-3.6,6.2-4.9,9.5l-0.7,1.7l-1.5-1c-6.3-4.2-13.1-8.2-20.5-11.8c-30.5-15.3-66.2-23.7-98.2-23.1l-3.7,0.1l-3.3,1.7
			c-22.6,12.1-43.8,35.8-59.6,67c-16.5,32.4-25.5,70.3-25.5,106.7c0,3,0.5,6.3,1.4,9.2c3.6,11.8,12.8,13.2,15.5,13.4
			c5.6,0.3,13.4-2.5,16.7-11.7c0.9-2.4,1.5-5.3,2-9.1c1.1-9.2,3.1-18.3,5.8-26.9l1.3-4.1l1.5,4c2.8,7.7,9.5,16,21,26
			c10.8,9.5,24.7,19.1,37.9,26.5l1.5,0.8l-1,1.3c-5.7,7.3-10.5,14-14.3,19.8c-3.7,5.7-6.3,10.4-8,14.4c-3.5,8.4-3.4,15.6,0.4,21.4
			l0.6,1L251.8,508.2z"/>
	</g>
	<path class="st0" d="M1131.6,284.2c-7.3-5.7-29.6-26.5-87.3-79.5c-33.7,0-57.6,9.8-75.8,20.8c-0.2,0.1-0.5,0.3-0.9,0.6
		c-5.6,3.8-12.7-1.1-12.7-7.8c0-7.9-6.3-14.1-14.2-14c-7.5,0.1-13.8,6.3-13.9,13.9c-0.1,7.9,6.2,14.2,14,14.2
		c7.5,0,7.3,7.2,1.6,11.5c-11.2,8.4-15.7,11.9-23.9,11.9h-38.5c-1.7,0-3.1-1.3-3.2-3l-2.5-44.8h-33.8l5.6,98.5c0,0,0,1,0,1
		c0.1,2.3-0.9,4.5-2.9,4.5c-1.9-0.1-4.3-1.7-6.8-4.2l-17.3-17.6c-6.2,6.2-17.7,16.6-35.3,16.6c-16.6,0-30.7-19.7-30.7-32.7
		c0-17.1,10.9-37.9,30.1-37.9c16.6,0,21.8,5.7,29.1,12l23.9-21.3c-10.9-11.4-29.1-20.8-55.6-20.8c-17.8,0-30.4,8.5-44.5,20
		c-9.4-12.3-24-21.6-46.4-21.6h-19.7L629.1,238c-18.7-11.4-26-34.8-56.1-34.8c-22.3,0-20.8,3.1-13,6.8c19.2,9.4,28.6,44.2,31.2,62.9
		l-1,1.6c-9.9-7.3-21.3-20.3-46.8-23.9c-25.5-3.6-54-7.3-71.2-35.3c-3.6-6.2-5.7-9.4-8.3-9.4c-3.6,0-0.5,26,8.3,43.6
		c12.5,24.4,60.8,42.6,99.8,41.6l18.2-0.5c18.7-17.7,35.9-34.3,50.9-48.8c0,0,9.4,0,38.5,0c25.9,0,67.3,26.3,69,66.4
		c0.1,1.8-0.7,3.6-2.2,4.7c-17.9,13.4-81.8,20.9-123-22.7l-19.9,19.5c-2.7,2.6-6.7,3.4-10.1,1.8c-25.4-11.4-49.9-18.2-91-18.2
		c-7.1,0-14.5,0.6-22.2,1.9c-3.5,0.6-6.6-2.2-6.3-5.8c0.3-3.2,0.1-6.8-0.6-10.7c-6.2-33.8-81.6-21.3-88.9-36.9
		c-4.2-8.8,4.7-13,16.6-13c12,0,19.7,4.7,25.5,14.5l28.4-11.8c-10.1-21.8-25.8-29.8-58.6-29.8c-38.5,0-55.1,30.7-47.8,46.8
		c13.5,31.2,50.4,28.6,83.1,35.3c7.8,1.6,8.8,13-1,16.6c-16.6,6.2-32.2-4.7-40-16.1l-13.3,3.9c-9.3,2.7-16.6-4.7-19.6-11.9l0,0
		c-11.7-36.3-81.3-72.1-143.8-70.9C175,226,137,292,137,365.3c0,5.2,3.1,13,4.7,0c1.6-13,8.3-65,59.8-106
		c35.3-28.1,42.1-32.2,55.6-38.5c7.3,3.6,75.3,52.5,75.3,89.9c0,8.3-47.3,5.2-64.4-14c-9.4-10.4-6.2-17.1-6.2-36.9
		c0-12.5-3.1-23.4-12.5-13.5c-9.4,9.9-69.6,72.2-69.6,85.7c0,10.4,28.1,33.8,53.5,47.8c3.9,2.2,8.2,4.2,12.7,6.2c2.3,1,3,4,1.4,6
		c-17.9,21.4-34.6,44.9-31.2,50.1l45.7,53c34.8,19.2,104.4,20.3,137.7-10.9l27-25.5c3.6-3.1,5.2-10.4-2.1-12l-76.7-17.8
		c-1.3-0.3-1.6-2.1-0.4-2.8c13.7-7.5,18.3-10.6,43.3-10.6c44.8,0,97.3,76,146.5,85.8c0.5,0.1,1.1,0.2,1.8,0.3l0,0
		c0.6,0.1,1.1,0.2,1.7,0.2c6.9,0.5,9.9-6.9-0.1-9.4c-26.8-5.7-46.2-26.5-66.9-50.2c-4.1-4.7-5.7-11-4.4-17.1v0
		c0.2-0.7,0.8-1.3,1.6-1.3h49.9c3.1,0,5.9,1.7,7.3,4.4l14.8,27.3h57.7l-1-32.7h20.3c15.6,0,23.4,9.9,43.6,33.3h80.1
		c30.1,0,65.9,30.1,123.1,42.6c31.2,6.8,55.6,6.8,96.7,6.8c58.4-55.6,85.8-87.4,99.8-103.9c7.4-8.8,16.6-18.7,13-20.3
		c-3.6-1.6-13.5,7.8-36.9,25.5c-6.2,4.7-12.6,9.3-19.2,13.9c-1.9,1.3-4.4,0.1-4.6-2.2l-3.7-53.3c-0.1-2,1.8-3.6,3.8-2.9
		c8.9,2.9,18,4.6,27.4,4.6c45.2,0,87.3-27,83.1-30.1s-4.7,7.8-46.2,13c-41.6,5.2-90.4-36.4-108.6-80c-7.8-19.2-7.8-37.4,2.6-36.9
		c40.5,2.6,113.8,36.4,153.3,57.2c6.2,3.1,12.5,7.3,13.5,5.7C1141.5,294.1,1141.5,292,1131.6,284.2z M457,329.7l-16.2,68.6
		c-0.5,2.3-3.4,3-5,1.3c-15.9-16.7-31-29.7-44.2-32.2l-80.5,72.2l26,18.2c15.1,10.4,20.8,11.4,18.7,13
		c-24.4,20.3-89.9,13.5-111.7-11.4c13.3-18.1,29.8-37.2,45-53.6c2.3-2.4,5.6-3.5,8.9-2.8c8.5,1.9,16.1,3,22,3.3
		c20.3,1,5.2-1-6.8-5.7c-2.1-0.8-5-2.1-8.6-3.9c-2.3-1.1-2.9-4.2-1-6.1c11.4-11.6,20.8-20.4,25.7-24.3c13-10.4,26.5-14,32.7-15.1
		c6.2-1,8.8-5.7-0.5-8.3c-9.4-2.6-17.1-5.7-31.2-5.2s-32.2,4.7-50.4,19.7c-2.8,2.3-6.5,5.8-10.6,10c-2.7,2.8-7.1,3-10.1,0.5
		c-6.7-5.6-12.9-11.6-17.7-17.8c-19.2-24.9-28.1-61.3-24.4-63.9c2.6-1.6,13.5,2.1,20.8,3.6c6.2,1.6,12.5,3.6,12,10.4
		c-0.5,6.8-8.3,21.8-8.3,24.9s9.9,10.4,27.5,13c28.8,4.1,67.2-10.6,81.6-30c0.1-0.1,0.3-0.4,0.5-0.6c0.8-0.9,1.5-1.8,2.2-2.6
		c3.3-2.8,8-2.4,11.9,1.6c0.3,0.4,0.7,0.8,1,1.2c0,0,0,0,0,0c0.1,0.1,0.2,0.2,0.3,0.3c8.2,8.9,19.5,16,31.8,19.2
		c3.4,0.9,3.8,1.7,0.9,3.7c-14.8,10.8-29.6,24-43.9,40c-7.3,8.3-9.9,10.9-8.8,12c2.6,2.6,3.6,0.5,8.3-3.1c3.8-3,48.2-40.8,98.2-54.1
		C455.4,325.1,457.6,327.2,457,329.7z M504.4,392.8h-25.3c-1.4,0-2.5-1.3-2.2-2.7l7.7-35.2c0.4-1.6,2.5-1.9,3.3-0.5l18.7,34.6
		C507.6,390.7,506.4,392.8,504.4,392.8z M562.4,423.3l-50.7-93.9c-1.3-2.4,0.9-5.3,3.6-4.6c15.9,4.2,28.4,11.2,38.2,18.2
		c4.7,3.3,7.7,8.5,8.1,14.2l4.9,64.8C566.7,424.4,563.5,425.4,562.4,423.3z M621.8,389.2c-9.4,0-15.6-0.5-24.4-0.5l-2.2-38.6
		c-0.2-4.2,3.1-7.7,7.2-7.7h18.8c16.6,0,26.5,11.4,27,23.4C648.8,377.8,640.5,389.2,621.8,389.2z M683.1,425
		c-9.9-12-23.4-17.1-30.7-17.1l2.6-0.5c16.1,0,29.6-16.1,29.1-40.5c0-0.8-0.1-2.7-0.2-4.6c-0.2-3.4,2.6-6.3,6-6.3h0
		c4.7,0,8.6,3.7,8.9,8.3l4.1,64.4C702.4,441.1,699.3,444.8,683.1,425z M735.4,359.5l-0.9-17.4c-0.2-3.1,1.2-6,3.6-8
		c1-0.8,2.1-1.7,3.2-2.7c2.4-2,5.3-4.4,7.6-6.2c3.1-2.4,4.6-3.7,7.3-2.4l10.6,5c3.2,1.5,3.5,5.8,0.6,7.8
		c-10.6,7.3-19.7,16-26.5,25.6C739.4,363.6,735.5,362.5,735.4,359.5z M743.3,427.1c-2.6,0-4.7-2-4.8-4.6l-1-20.4
		c-0.1-3,2.4-5.3,5.4-4.9c18.5,2.7,56.5,4.9,83.7,4.9l29.6-22.9c12-8.8,20.8-1,26,4.2s3.6,9.4-6.2,16.6
		c-22.9,17.1-32.7,9.9-58.2,9.9c-25.5,0-42.1,17.1-59.8,17.1H743.3z M974.6,449.5c-41.1,24.2-79,41.5-89.9,41.5
		c-16.6,0-65-38.5-74.3-47.8c8.8-10.9,14-20.3,24.4-20.3c26.5,0,46.8,30.7,79.5,13c6.2-3.6,16.1-6.8,10.9-16.6
		c-1.6-3.1-22.3-27-35.9-42.1s-38.5-36.9-54.6-36.9c-23.9,21.8-47.3,42.1-57.2,48.3c-5.7,3.6-9.9,5.2-8.3,0
		c9.9-32.7,48.8-65.5,73.3-65.5c36.9,0,74.8,43.3,133.3,119.4C977.7,444.8,977.1,448.1,974.6,449.5z M971.3,337.4
		c1.3,1.1,2.2,2.7,2.3,4.4l3.2,42c0.1,1.7-2,2.4-3,1.1c-21.7-29.7-53.9-53.4-87.8-65.1c-0.1,0-0.2-0.1-0.3-0.1
		c-3.8-1.4-5.4-3.6-5.6-7.8v0l-1.1-20.5c-0.1-1.8,1.4-3.4,3.2-3.4h31.7c9.4,0,13,1,21.8,13C944.4,312.2,956.7,325.6,971.3,337.4z"/>
</g>
</svg>
