<?xml version="1.0" encoding="UTF-8" standalone="no"?>
<!DOCTYPE svg PUBLIC "-//W3C//DTD SVG 1.1//EN" "http://www.w3.org/Graphics/SVG/1.1/DTD/svg11.dtd">
<svg width="100%" height="100%" viewBox="0 0 1280 676" version="1.1" xmlns="http://www.w3.org/2000/svg" xmlns:xlink="http://www.w3.org/1999/xlink" xml:space="preserve" xmlns:serif="http://www.serif.com/" style="fill-rule:evenodd;clip-rule:evenodd;stroke-linejoin:round;stroke-miterlimit:2;">
    <g>
        <g>
            <path d="M323.5,528C296.9,528 271.1,522.2 252.8,512.1L249.7,510.3L201.2,454.1L200.4,453C196.1,446.3 195.9,438.2 199.8,428.9C201.6,424.7 204.3,419.8 208,414C211.6,408.5 216.1,402.2 221.5,395.3C208.5,387.9 195.2,378.5 184.6,369.2C174.5,360.4 167.9,352.8 164.4,345.7C162.3,353 160.8,360.6 159.8,368.3C159.3,372.3 158.6,375.4 157.7,378C153.8,388.6 144.7,391.9 138.1,391.6C134.9,391.4 124.1,389.7 120,376.2C119,373 118.5,369.5 118.5,366.2C118.5,329.3 127.7,291 144.3,258.2C160.4,226.5 182,202.3 205.1,190L209,187.9L213.4,187.8C245.8,187.2 282.1,195.7 313,211.2C319.9,214.6 326.4,218.4 332.3,222.2C333.5,219.3 335,216.5 336.8,213.9C342.5,205.1 350.6,197.8 360.2,192.7C370.8,187.1 382.9,184.2 396.2,184.2C416,184.2 430.6,187 442.3,192.9C444.3,193.9 446.3,195.1 448.2,196.3C451.9,191.3 457.6,188.3 463.8,188.3C477.2,188.3 483.7,199.3 487.9,206.6C493.3,215.4 500.6,221.5 510.8,225.5C521,229.6 533,231.3 544.6,232.9L545.9,233.1C550.7,233.8 555.4,234.8 559.9,236.1C557.2,231.6 554.4,228.5 551.9,227.3C549,225.9 546.8,224.6 544.9,223.2C538.1,218 535,210.4 536.7,202.6C537.8,197.6 541.8,188.8 556.2,186.5C560.3,185.9 565.6,185.6 572.9,185.6C600.7,185.6 615.3,200.8 626,211.8C627.1,212.9 628.1,214 629,214.9L663.4,186.6L689.7,186.6C708.4,186.6 724.6,191.9 737.8,202.2C747,196 761.1,188.1 780.7,188.1C795.4,188.1 809.1,190.6 821.3,195.6L821,190.2L891.6,190.2L894.2,238L914.4,238C910.3,232.4 908.2,225.6 908.3,218.6C908.5,201.1 922.9,186.8 940.3,186.6L940.7,186.6C949.3,186.6 957.4,189.9 963.5,195.9C966,198.4 968.1,201.3 969.7,204.4C992.6,192.7 1017,187 1044.1,187L1051.3,187L1086,218.9C1120.3,250.4 1137.5,266.2 1142.8,270.4C1149.2,275.4 1152.9,279.2 1155.3,282.9C1160.3,290.5 1160.3,299.3 1155.5,306.5C1151.7,312.2 1145.4,315.4 1138.4,315C1134.9,315.4 1133.3,316.5 1133.1,317.4C1132.8,318.5 1134.1,320.5 1136.8,322.7C1143.3,327.6 1146,336.2 1143.4,344.2C1141.4,350.1 1136.8,355.1 1128.1,360.8C1122.1,364.7 1114.7,368.6 1106.6,372C1102.5,373.8 1098.3,375.4 1094,376.8C1094.2,377.4 1094.4,378.1 1094.6,378.7C1097.3,390.3 1090,398.8 1079.9,410.7C1078.9,411.9 1077.9,413 1077,414.1C1060.5,433.7 1032.1,466 975.8,519.5L970.5,524.6L963.1,524.6C921,524.6 895.7,524.6 862.6,517.4C832.1,510.7 807.2,499.4 787.2,490.2C769.6,482.2 754.4,475.2 743.4,475.2L655,475.2L646.8,465.7C628.7,444.8 625.4,441.9 619.8,441.9L618.5,441.9L619.5,474.6L542.1,474.6C542.8,474.8 543.6,475 544.3,475.1L544.9,475.2C561,479.2 566.6,491.7 565.1,501.6C563.3,513.3 552.4,521.7 539.4,520.8L538.2,520.7C537.5,520.6 536.7,520.5 536,520.4L533.6,520C505.6,514.5 479.4,493.1 454.1,472.5L453.8,472.3C450.9,469.9 447.9,467.5 445,465.1C443.5,468.1 441.4,470.8 439,472.9L412,498.5C393.5,515.8 365.1,526.3 332,527.8C329.2,527.9 326.3,528 323.5,528ZM251.8,508.2L254.2,509.5C272.1,519.4 297.3,525.1 323.5,525.1C326.3,525.1 329.1,525 331.9,524.9C364.3,523.4 392.1,513.2 410,496.3L436.8,471C439.4,468.7 441.5,465.7 442.9,462.4L443.7,460.6L445.2,461.8C448.6,464.5 452.1,467.3 455.5,470.1L455.8,470.3C480.9,490.7 506.8,511.8 534.1,517.2L536.4,517.6C537.1,517.7 537.8,517.8 538.5,517.9L539.5,518C550.9,518.7 560.5,511.5 562.1,501.3C563.4,492.6 558.4,481.7 544.1,478.1L543.6,478C540,477.2 536.4,476.1 532.9,474.5L526.6,471.7L616.5,471.7L615.5,439L619.8,439C626.6,439 630.2,442 649,463.8L656.3,472.3L743.5,472.3C755.2,472.3 770.6,479.4 788.5,487.6C808.4,496.7 833.1,508 863.3,514.6C896.1,521.7 921.4,521.7 963.2,521.7L969.4,521.7L973.9,517.4C1030,464 1058.4,431.8 1074.8,412.2C1075.8,411.1 1076.7,409.9 1077.7,408.8C1087.3,397.6 1094.2,389.5 1091.8,379.4C1091.6,378.4 1091.3,377.4 1090.8,376.5L1090.2,375L1091.7,374.5C1096.4,372.9 1101,371.2 1105.5,369.3C1113.4,365.9 1120.7,362.1 1126.6,358.3C1134.8,353 1139,348.5 1140.8,343.2C1143,336.5 1140.8,329.1 1135.2,324.9C1131.3,321.6 1129.8,318.9 1130.5,316.5C1131.2,314.1 1134,312.6 1138.5,312.1C1147.6,312.6 1152.1,306.7 1153.3,304.9C1157.4,298.7 1157.4,291 1153.1,284.5C1150.9,281.1 1147.3,277.6 1141.2,272.8C1135.8,268.5 1118.5,252.7 1084.2,221.1L1050.3,190L1044.3,190C1017.2,190 992.8,195.8 969.9,207.7L968.5,208.4L967.9,207C966.4,203.6 964.3,200.6 961.7,198C956.1,192.5 948.8,189.5 940.9,189.5L940.5,189.5C924.6,189.7 911.5,202.8 911.4,218.7C911.3,226 913.9,233.1 918.7,238.6L920.8,241L891.6,241L889,193.2L824.2,193.2L824.6,200.3L822.4,199.4C810,194 796,191.2 780.8,191.2C765.8,191.2 752.8,195.6 738.7,205.4L737.8,206L737,205.3C724.2,194.9 708.4,189.6 689.9,189.6L664.6,189.6L628.9,218.9L628,218C626.7,216.8 625.5,215.4 624.1,214.1C613.6,203.2 599.5,188.6 572.9,188.6C565.7,188.6 560.6,188.9 556.7,189.5C544.1,191.5 540.6,199 539.6,203.3C538.1,209.9 540.8,216.5 546.7,220.9C548.4,222.2 550.5,223.4 553.2,224.7C557.8,227 561.8,233.2 564.3,237.9L566,241.1L562.5,239.9C557.1,238.1 551.4,236.7 545.4,235.9L544.1,235.7C532.3,234 520.1,232.3 509.6,228.1C498.8,223.8 491.1,217.4 485.3,208C481.1,200.8 475.4,191.1 463.7,191.1C458,191.1 452.8,194 449.8,199L449,200.3L447.7,199.4C445.6,197.9 443.3,196.6 441,195.4C429.7,189.7 415.5,187 396.2,187C383.4,187 371.8,189.7 361.6,195.2C352.4,200.1 344.6,207.1 339.3,215.4C337.3,218.4 335.7,221.6 334.4,224.9L333.7,226.6L332.2,225.6C325.9,221.4 319.1,217.4 311.7,213.8C281.2,198.5 245.5,190.1 213.5,190.7L209.8,190.8L206.5,192.5C183.9,204.6 162.7,228.3 146.9,259.5C130.4,291.9 121.4,329.8 121.4,366.2C121.4,369.2 121.9,372.5 122.8,375.4C126.4,387.2 135.6,388.6 138.3,388.8C143.9,389.1 151.7,386.3 155,377.1C155.9,374.7 156.5,371.8 157,368C158.1,358.8 160.1,349.7 162.8,341.1L164.1,337L165.6,341C168.4,348.7 175.1,357 186.6,367C197.4,376.5 211.3,386.1 224.5,393.5L226,394.3L225,395.6C219.3,402.9 214.5,409.6 210.7,415.4C207,421.1 204.4,425.8 202.7,429.8C199.2,438.2 199.3,445.4 203.1,451.2L203.7,452.2L251.8,508.2Z" style="fill:rgb(205,207,208);fill-rule:nonzero;"/>
        </g>
        <path d="M1131.6,284.2C1124.3,278.5 1102,257.7 1044.3,204.7C1010.6,204.7 986.7,214.5 968.5,225.5C968.3,225.6 968,225.8 967.6,226.1C962,229.9 954.9,225 954.9,218.3C954.9,210.4 948.6,204.2 940.7,204.3C933.2,204.4 926.9,210.6 926.8,218.2C926.7,226.1 933,232.4 940.8,232.4C948.3,232.4 948.1,239.6 942.4,243.9C931.2,252.3 926.7,255.8 918.5,255.8L880,255.8C878.3,255.8 876.9,254.5 876.8,252.8L874.3,208L840.5,208L846.1,306.5L846.1,307.5C846.2,309.8 845.2,312 843.2,312C841.3,311.9 838.9,310.3 836.4,307.8L819.1,290.2C812.9,296.4 801.4,306.8 783.8,306.8C767.2,306.8 753.1,287.1 753.1,274.1C753.1,257 764,236.2 783.2,236.2C799.8,236.2 805,241.9 812.3,248.2L836.2,226.9C825.3,215.5 807.1,206.1 780.6,206.1C762.8,206.1 750.2,214.6 736.1,226.1C726.7,213.8 712.1,204.5 689.7,204.5L670,204.5L629.1,238C610.4,226.6 603.1,203.2 573,203.2C550.7,203.2 552.2,206.3 560,210C579.2,219.4 588.6,254.2 591.2,272.9L590.2,274.5C580.3,267.2 568.9,254.2 543.4,250.6C517.9,247 489.4,243.3 472.2,215.3C468.6,209.1 466.5,205.9 463.9,205.9C460.3,205.9 463.4,231.9 472.2,249.5C484.7,273.9 533,292.1 572,291.1L590.2,290.6C608.9,272.9 626.1,256.3 641.1,241.8L679.6,241.8C705.5,241.8 746.9,268.1 748.6,308.2C748.7,310 747.9,311.8 746.4,312.9C728.5,326.3 664.6,333.8 623.4,290.2L603.5,309.7C600.8,312.3 596.8,313.1 593.4,311.5C568,300.1 543.5,293.3 502.4,293.3C495.3,293.3 487.9,293.9 480.2,295.2C476.7,295.8 473.6,293 473.9,289.4C474.2,286.2 474,282.6 473.3,278.7C467.1,244.9 391.7,257.4 384.4,241.8C380.2,233 389.1,228.8 401,228.8C413,228.8 420.7,233.5 426.5,243.3L454.9,231.5C444.8,209.7 429.1,201.7 396.3,201.7C357.8,201.7 341.2,232.4 348.5,248.5C362,279.7 398.9,277.1 431.6,283.8C439.4,285.4 440.4,296.8 430.6,300.4C414,306.6 398.4,295.7 390.6,284.3L377.3,288.2C368,290.9 360.7,283.5 357.7,276.3C346,240 276.4,204.2 213.9,205.4C175,226 137,292 137,365.3C137,370.5 140.1,378.3 141.7,365.3C143.3,352.3 150,300.3 201.5,259.3C236.8,231.2 243.6,227.1 257.1,220.8C264.4,224.4 332.4,273.3 332.4,310.7C332.4,319 285.1,315.9 268,296.7C258.6,286.3 261.8,279.6 261.8,259.8C261.8,247.3 258.7,236.4 249.3,246.3C239.9,256.2 179.7,318.5 179.7,332C179.7,342.4 207.8,365.8 233.2,379.8C237.1,382 241.4,384 245.9,386C248.2,387 248.9,390 247.3,392C229.4,413.4 212.7,436.9 216.1,442.1L261.8,495.1C296.6,514.3 366.2,515.4 399.5,484.2L426.5,458.7C430.1,455.6 431.7,448.3 424.4,446.7L347.7,428.9C346.4,428.6 346.1,426.8 347.3,426.1C361,418.6 365.6,415.5 390.6,415.5C435.4,415.5 487.9,491.5 537.1,501.3C537.6,501.4 538.2,501.5 538.9,501.6C539.5,501.7 540,501.8 540.6,501.8C547.5,502.3 550.5,494.9 540.5,492.4C513.7,486.7 494.3,465.9 473.6,442.2C469.5,437.5 467.9,431.2 469.2,425.1C469.4,424.4 470,423.8 470.8,423.8L520.7,423.8C523.8,423.8 526.6,425.5 528,428.2L542.8,455.5L600.5,455.5L599.5,422.8L619.8,422.8C635.4,422.8 643.2,432.7 663.4,456.1L743.5,456.1C773.6,456.1 809.4,486.2 866.6,498.7C897.8,505.5 922.2,505.5 963.3,505.5C1021.7,449.9 1049.1,418.1 1063.1,401.6C1070.5,392.8 1079.7,382.9 1076.1,381.3C1072.5,379.7 1062.6,389.1 1039.2,406.8C1033,411.5 1026.6,416.1 1020,420.7C1018.1,422 1015.6,420.8 1015.4,418.5L1011.7,365.2C1011.6,363.2 1013.5,361.6 1015.5,362.3C1024.4,365.2 1033.5,366.9 1042.9,366.9C1088.1,366.9 1130.2,339.9 1126,336.8C1121.8,333.7 1121.3,344.6 1079.8,349.8C1038.2,355 989.4,313.4 971.2,269.8C963.4,250.6 963.4,232.4 973.8,232.9C1014.3,235.5 1087.6,269.3 1127.1,290.1C1133.3,293.2 1139.6,297.4 1140.6,295.8C1141.5,294.1 1141.5,292 1131.6,284.2ZM457,329.7L440.8,398.3C440.3,400.6 437.4,401.3 435.8,399.6C419.9,382.9 404.8,369.9 391.6,367.4L311.1,439.6L337.1,457.8C352.2,468.2 357.9,469.2 355.8,470.8C331.4,491.1 265.9,484.3 244.1,459.4C257.4,441.3 273.9,422.2 289.1,405.8C291.4,403.4 294.7,402.3 298,403C306.5,404.9 314.1,406 320,406.3C340.3,407.3 325.2,405.3 313.2,400.6C311.1,399.8 308.2,398.5 304.6,396.7C302.3,395.6 301.7,392.5 303.6,390.6C315,379 324.4,370.2 329.3,366.3C342.3,355.9 355.8,352.3 362,351.2C368.2,350.2 370.8,345.5 361.5,342.9C352.1,340.3 344.4,337.2 330.3,337.7C316.2,338.2 298.1,342.4 279.9,357.4C277.1,359.7 273.4,363.2 269.3,367.4C266.6,370.2 262.2,370.4 259.2,367.9C252.5,362.3 246.3,356.3 241.5,350.1C222.3,325.2 213.4,288.8 217.1,286.2C219.7,284.6 230.6,288.3 237.9,289.8C244.1,291.4 250.4,293.4 249.9,300.2C249.4,307 241.6,322 241.6,325.1C241.6,328.2 251.5,335.5 269.1,338.1C297.9,342.2 336.3,327.5 350.7,308.1C350.8,308 351,307.7 351.2,307.5C352,306.6 352.7,305.7 353.4,304.9C356.7,302.1 361.4,302.5 365.3,306.5C365.6,306.9 366,307.3 366.3,307.7C366.4,307.8 366.5,307.9 366.6,308C374.8,316.9 386.1,324 398.4,327.2C401.8,328.1 402.2,328.9 399.3,330.9C384.5,341.7 369.7,354.9 355.4,370.9C348.1,379.2 345.5,381.8 346.6,382.9C349.2,385.5 350.2,383.4 354.9,379.8C358.7,376.8 403.1,339 453.1,325.7C455.4,325.1 457.6,327.2 457,329.7ZM504.4,392.8L479.1,392.8C477.7,392.8 476.6,391.5 476.9,390.1L484.6,354.9C485,353.3 487.1,353 487.9,354.4L506.6,389C507.6,390.7 506.4,392.8 504.4,392.8ZM562.4,423.3L511.7,329.4C510.4,327 512.6,324.1 515.3,324.8C531.2,329 543.7,336 553.5,343C558.2,346.3 561.2,351.5 561.6,357.2L566.5,422C566.7,424.4 563.5,425.4 562.4,423.3ZM621.8,389.2C612.4,389.2 606.2,388.7 597.4,388.7L595.2,350.1C595,345.9 598.3,342.4 602.4,342.4L621.2,342.4C637.8,342.4 647.7,353.8 648.2,365.8C648.8,377.8 640.5,389.2 621.8,389.2ZM683.1,425C673.2,413 659.7,407.9 652.4,407.9L655,407.4C671.1,407.4 684.6,391.3 684.1,366.9C684.1,366.1 684,364.2 683.9,362.3C683.7,358.9 686.5,356 689.9,356C694.6,356 698.5,359.7 698.8,364.3L702.9,428.7C702.4,441.1 699.3,444.8 683.1,425ZM735.4,359.5L734.5,342.1C734.3,339 735.7,336.1 738.1,334.1C739.1,333.3 740.2,332.4 741.3,331.4C743.7,329.4 746.6,327 748.9,325.2C752,322.8 753.5,321.5 756.2,322.8L766.8,327.8C770,329.3 770.3,333.6 767.4,335.6C756.8,342.9 747.7,351.6 740.9,361.2C739.4,363.6 735.5,362.5 735.4,359.5ZM743.3,427.1C740.7,427.1 738.6,425.1 738.5,422.5L737.5,402.1C737.4,399.1 739.9,396.8 742.9,397.2C761.4,399.9 799.4,402.1 826.6,402.1L856.2,379.2C868.2,370.4 877,378.2 882.2,383.4C887.4,388.6 885.8,392.8 876,400C853.1,417.1 843.3,409.9 817.8,409.9C792.3,409.9 775.7,427 758,427L743.3,427L743.3,427.1ZM974.6,449.5C933.5,473.7 895.6,491 884.7,491C868.1,491 819.7,452.5 810.4,443.2C819.2,432.3 824.4,422.9 834.8,422.9C861.3,422.9 881.6,453.6 914.3,435.9C920.5,432.3 930.4,429.1 925.2,419.3C923.6,416.2 902.9,392.3 889.3,377.2C875.7,362.1 850.8,340.3 834.7,340.3C810.8,362.1 787.4,382.4 777.5,388.6C771.8,392.2 767.6,393.8 769.2,388.6C779.1,355.9 818,323.1 842.5,323.1C879.4,323.1 917.3,366.4 975.8,442.5C977.7,444.8 977.1,448.1 974.6,449.5ZM971.3,337.4C972.6,338.5 973.5,340.1 973.6,341.8L976.8,383.8C976.9,385.5 974.8,386.2 973.8,384.9C952.1,355.2 919.9,331.5 886,319.8C885.9,319.8 885.8,319.7 885.7,319.7C881.9,318.3 880.3,316.1 880.1,311.9L879,291.4C878.9,289.6 880.4,288 882.2,288L913.9,288C923.3,288 926.9,289 935.7,301C944.4,312.2 956.7,325.6 971.3,337.4Z" style="fill:rgb(205,207,208);fill-rule:nonzero;"/>
    </g>
</svg>
